<?xml version="1.0" standalone="no"?>
 <!DOCTYPE svg PUBLIC "-//W3C//DTD SVG 1.1//EN" 
 "http://www.w3.org/Graphics/SVG/1.1/DTD/svg11.dtd"> 
<svg
  xmlns:svg="http://www.w3.org/2000/svg"
  xmlns="http://www.w3.org/2000/svg"
  xmlns:xlink="http://www.w3.org/1999/xlink"
  version="1.1"
  width="29.700220cm" height="21.000720cm" viewBox="0 0 116930 82680">
<title>SVG Picture created as NavigationSystem-F_SilkS.svg date 2020/11/23 23:33:27 </title>
  <desc>Picture generated by PCBNEW </desc>
<g style="fill:#000000; fill-opacity:1;stroke:#000000; stroke-opacity:1;
stroke-linecap:round; stroke-linejoin:round;"
 transform="translate(0 0) scale(1 1)">
</g>
<g style="fill:#000000; fill-opacity:0.0; 
stroke:#000000; stroke-width:-0.000393701; stroke-opacity:1; 
stroke-linecap:round; stroke-linejoin:round;">
</g>
<g style="fill:#000000; fill-opacity:0.0; 
stroke:#000000; stroke-width:39.3701; stroke-opacity:1; 
stroke-linecap:round; stroke-linejoin:round;">
</g>
<g style="fill:#000000; fill-opacity:0.0; 
stroke:#000000; stroke-width:59.0551; stroke-opacity:1; 
stroke-linecap:round; stroke-linejoin:round;">
<rect x="69685.9" y="65357.2" width="42519.7" height="12598.4" rx="0" />
</g>
<g style="fill:#000000; fill-opacity:0.0; 
stroke:#000000; stroke-width:39.3701; stroke-opacity:1; 
stroke-linecap:round; stroke-linejoin:round;">
</g>
<g style="fill:#000000; fill-opacity:0.0; 
stroke:#000000; stroke-width:59.0551; stroke-opacity:1; 
stroke-linecap:round; stroke-linejoin:round;">
<rect x="3937.01" y="3937.01" width="109056" height="74806" rx="0" />
</g>
<g style="fill:#000000; fill-opacity:0.0; 
stroke:#000000; stroke-width:39.3701; stroke-opacity:1; 
stroke-linecap:round; stroke-linejoin:round;">
</g>
<g style="fill:#000000; fill-opacity:0.0; 
stroke:#000000; stroke-width:59.0551; stroke-opacity:1; 
stroke-linecap:round; stroke-linejoin:round;">
<rect x="4724.41" y="4724.41" width="107481" height="73231.2" rx="0" />
</g>
<g style="fill:#000000; fill-opacity:0.0; 
stroke:#000000; stroke-width:39.3701; stroke-opacity:1; 
stroke-linecap:round; stroke-linejoin:round;">
</g>
<g style="fill:#000000; fill-opacity:0.0; 
stroke:#000000; stroke-width:59.0551; stroke-opacity:1; 
stroke-linecap:round; stroke-linejoin:round;">
<path d="M23622 4724
L23622 3937
" />
</g>
<g style="fill:#000000; fill-opacity:0.0; 
stroke:#000000; stroke-width:39.3701; stroke-opacity:1; 
stroke-linecap:round; stroke-linejoin:round;">
</g>
<g style="fill:#000000; fill-opacity:0.0; 
stroke:#000000; stroke-width:59.0551; stroke-opacity:1; 
stroke-linecap:round; stroke-linejoin:round;">
<path d="M43307 4724
L43307 3937
" />
</g>
<g style="fill:#000000; fill-opacity:0.0; 
stroke:#000000; stroke-width:39.3701; stroke-opacity:1; 
stroke-linecap:round; stroke-linejoin:round;">
</g>
<g style="fill:#000000; fill-opacity:0.0; 
stroke:#000000; stroke-width:59.0551; stroke-opacity:1; 
stroke-linecap:round; stroke-linejoin:round;">
<path d="M62992 4724
L62992 3937
" />
</g>
<g style="fill:#000000; fill-opacity:0.0; 
stroke:#000000; stroke-width:39.3701; stroke-opacity:1; 
stroke-linecap:round; stroke-linejoin:round;">
</g>
<g style="fill:#000000; fill-opacity:0.0; 
stroke:#000000; stroke-width:59.0551; stroke-opacity:1; 
stroke-linecap:round; stroke-linejoin:round;">
<path d="M82677 4724
L82677 3937
" />
</g>
<g style="fill:#000000; fill-opacity:0.0; 
stroke:#000000; stroke-width:39.3701; stroke-opacity:1; 
stroke-linecap:round; stroke-linejoin:round;">
</g>
<g style="fill:#000000; fill-opacity:0.0; 
stroke:#000000; stroke-width:59.0551; stroke-opacity:1; 
stroke-linecap:round; stroke-linejoin:round;">
<path d="M102362 4724
L102362 3937
" />
</g>
<g style="fill:#000000; fill-opacity:0.0; 
stroke:#000000; stroke-width:39.3701; stroke-opacity:1; 
stroke-linecap:round; stroke-linejoin:round;">
</g>
<g style="fill:#000000; fill-opacity:0.0; 
stroke:#000000; stroke-width:59.0551; stroke-opacity:1; 
stroke-linecap:round; stroke-linejoin:round;">
<text x="13779.5" y="4586.61"
textLength="546.494" font-size="682.415" lengthAdjust="spacingAndGlyphs"
text-anchor="start" opacity="0">1</text>
<path d="M14199 4562
L13906 4562
" />
<path d="M14052 4562
L14052 4050
L14004 4123
L13955 4172
L13906 4196
" />
</g>
<g style="fill:#000000; fill-opacity:0.0; 
stroke:#000000; stroke-width:39.3701; stroke-opacity:1; 
stroke-linecap:round; stroke-linejoin:round;">
</g>
<g style="fill:#000000; fill-opacity:0.0; 
stroke:#000000; stroke-width:59.0551; stroke-opacity:1; 
stroke-linecap:round; stroke-linejoin:round;">
<text x="33464.6" y="4586.61"
textLength="546.494" font-size="682.415" lengthAdjust="spacingAndGlyphs"
text-anchor="start" opacity="0">2</text>
<path d="M33591 4099
L33615 4074
L33664 4050
L33786 4050
L33835 4074
L33859 4099
L33884 4147
L33884 4196
L33859 4269
L33567 4562
L33884 4562
" />
</g>
<g style="fill:#000000; fill-opacity:0.0; 
stroke:#000000; stroke-width:39.3701; stroke-opacity:1; 
stroke-linecap:round; stroke-linejoin:round;">
</g>
<g style="fill:#000000; fill-opacity:0.0; 
stroke:#000000; stroke-width:59.0551; stroke-opacity:1; 
stroke-linecap:round; stroke-linejoin:round;">
<text x="53149.6" y="4586.61"
textLength="546.494" font-size="682.415" lengthAdjust="spacingAndGlyphs"
text-anchor="start" opacity="0">3</text>
<path d="M53252 4050
L53569 4050
L53398 4245
L53471 4245
L53520 4269
L53544 4294
L53569 4342
L53569 4464
L53544 4513
L53520 4537
L53471 4562
L53325 4562
L53276 4537
L53252 4513
" />
</g>
<g style="fill:#000000; fill-opacity:0.0; 
stroke:#000000; stroke-width:39.3701; stroke-opacity:1; 
stroke-linecap:round; stroke-linejoin:round;">
</g>
<g style="fill:#000000; fill-opacity:0.0; 
stroke:#000000; stroke-width:59.0551; stroke-opacity:1; 
stroke-linecap:round; stroke-linejoin:round;">
<text x="72834.6" y="4586.61"
textLength="546.494" font-size="682.415" lengthAdjust="spacingAndGlyphs"
text-anchor="start" opacity="0">4</text>
<path d="M73205 4221
L73205 4562
" />
<path d="M73083 4026
L72961 4391
L73278 4391
" />
</g>
<g style="fill:#000000; fill-opacity:0.0; 
stroke:#000000; stroke-width:39.3701; stroke-opacity:1; 
stroke-linecap:round; stroke-linejoin:round;">
</g>
<g style="fill:#000000; fill-opacity:0.0; 
stroke:#000000; stroke-width:59.0551; stroke-opacity:1; 
stroke-linecap:round; stroke-linejoin:round;">
<text x="92519.7" y="4586.61"
textLength="546.494" font-size="682.415" lengthAdjust="spacingAndGlyphs"
text-anchor="start" opacity="0">5</text>
<path d="M92914 4050
L92671 4050
L92646 4294
L92671 4269
L92719 4245
L92841 4245
L92890 4269
L92914 4294
L92939 4342
L92939 4464
L92914 4513
L92890 4537
L92841 4562
L92719 4562
L92671 4537
L92646 4513
" />
</g>
<g style="fill:#000000; fill-opacity:0.0; 
stroke:#000000; stroke-width:39.3701; stroke-opacity:1; 
stroke-linecap:round; stroke-linejoin:round;">
</g>
<g style="fill:#000000; fill-opacity:0.0; 
stroke:#000000; stroke-width:59.0551; stroke-opacity:1; 
stroke-linecap:round; stroke-linejoin:round;">
<text x="112205" y="4586.61"
textLength="546.494" font-size="682.415" lengthAdjust="spacingAndGlyphs"
text-anchor="start" opacity="0">6</text>
<path d="M112575 4050
L112477 4050
L112429 4074
L112404 4099
L112356 4172
L112331 4269
L112331 4464
L112356 4513
L112380 4537
L112429 4562
L112526 4562
L112575 4537
L112599 4513
L112624 4464
L112624 4342
L112599 4294
L112575 4269
L112526 4245
L112429 4245
L112380 4269
L112356 4294
L112331 4342
" />
</g>
<g style="fill:#000000; fill-opacity:0.0; 
stroke:#000000; stroke-width:39.3701; stroke-opacity:1; 
stroke-linecap:round; stroke-linejoin:round;">
</g>
<g style="fill:#000000; fill-opacity:0.0; 
stroke:#000000; stroke-width:59.0551; stroke-opacity:1; 
stroke-linecap:round; stroke-linejoin:round;">
<path d="M23622 77955
L23622 78742
" />
</g>
<g style="fill:#000000; fill-opacity:0.0; 
stroke:#000000; stroke-width:39.3701; stroke-opacity:1; 
stroke-linecap:round; stroke-linejoin:round;">
</g>
<g style="fill:#000000; fill-opacity:0.0; 
stroke:#000000; stroke-width:59.0551; stroke-opacity:1; 
stroke-linecap:round; stroke-linejoin:round;">
<path d="M43307 77955
L43307 78742
" />
</g>
<g style="fill:#000000; fill-opacity:0.0; 
stroke:#000000; stroke-width:39.3701; stroke-opacity:1; 
stroke-linecap:round; stroke-linejoin:round;">
</g>
<g style="fill:#000000; fill-opacity:0.0; 
stroke:#000000; stroke-width:59.0551; stroke-opacity:1; 
stroke-linecap:round; stroke-linejoin:round;">
<path d="M62992 77955
L62992 78742
" />
</g>
<g style="fill:#000000; fill-opacity:0.0; 
stroke:#000000; stroke-width:39.3701; stroke-opacity:1; 
stroke-linecap:round; stroke-linejoin:round;">
</g>
<g style="fill:#000000; fill-opacity:0.0; 
stroke:#000000; stroke-width:59.0551; stroke-opacity:1; 
stroke-linecap:round; stroke-linejoin:round;">
<path d="M82677 77955
L82677 78742
" />
</g>
<g style="fill:#000000; fill-opacity:0.0; 
stroke:#000000; stroke-width:39.3701; stroke-opacity:1; 
stroke-linecap:round; stroke-linejoin:round;">
</g>
<g style="fill:#000000; fill-opacity:0.0; 
stroke:#000000; stroke-width:59.0551; stroke-opacity:1; 
stroke-linecap:round; stroke-linejoin:round;">
<path d="M102362 77955
L102362 78742
" />
</g>
<g style="fill:#000000; fill-opacity:0.0; 
stroke:#000000; stroke-width:39.3701; stroke-opacity:1; 
stroke-linecap:round; stroke-linejoin:round;">
</g>
<g style="fill:#000000; fill-opacity:0.0; 
stroke:#000000; stroke-width:59.0551; stroke-opacity:1; 
stroke-linecap:round; stroke-linejoin:round;">
<text x="13779.5" y="78605.2"
textLength="546.494" font-size="682.415" lengthAdjust="spacingAndGlyphs"
text-anchor="start" opacity="0">1</text>
<path d="M14199 78580
L13906 78580
" />
<path d="M14052 78580
L14052 78069
L14004 78142
L13955 78190
L13906 78215
" />
</g>
<g style="fill:#000000; fill-opacity:0.0; 
stroke:#000000; stroke-width:39.3701; stroke-opacity:1; 
stroke-linecap:round; stroke-linejoin:round;">
</g>
<g style="fill:#000000; fill-opacity:0.0; 
stroke:#000000; stroke-width:59.0551; stroke-opacity:1; 
stroke-linecap:round; stroke-linejoin:round;">
<text x="33464.6" y="78605.2"
textLength="546.494" font-size="682.415" lengthAdjust="spacingAndGlyphs"
text-anchor="start" opacity="0">2</text>
<path d="M33591 78117
L33615 78093
L33664 78069
L33786 78069
L33835 78093
L33859 78117
L33884 78166
L33884 78215
L33859 78288
L33567 78580
L33884 78580
" />
</g>
<g style="fill:#000000; fill-opacity:0.0; 
stroke:#000000; stroke-width:39.3701; stroke-opacity:1; 
stroke-linecap:round; stroke-linejoin:round;">
</g>
<g style="fill:#000000; fill-opacity:0.0; 
stroke:#000000; stroke-width:59.0551; stroke-opacity:1; 
stroke-linecap:round; stroke-linejoin:round;">
<text x="53149.6" y="78605.2"
textLength="546.494" font-size="682.415" lengthAdjust="spacingAndGlyphs"
text-anchor="start" opacity="0">3</text>
<path d="M53252 78069
L53569 78069
L53398 78263
L53471 78263
L53520 78288
L53544 78312
L53569 78361
L53569 78483
L53544 78532
L53520 78556
L53471 78580
L53325 78580
L53276 78556
L53252 78532
" />
</g>
<g style="fill:#000000; fill-opacity:0.0; 
stroke:#000000; stroke-width:39.3701; stroke-opacity:1; 
stroke-linecap:round; stroke-linejoin:round;">
</g>
<g style="fill:#000000; fill-opacity:0.0; 
stroke:#000000; stroke-width:59.0551; stroke-opacity:1; 
stroke-linecap:round; stroke-linejoin:round;">
<text x="72834.6" y="78605.2"
textLength="546.494" font-size="682.415" lengthAdjust="spacingAndGlyphs"
text-anchor="start" opacity="0">4</text>
<path d="M73205 78239
L73205 78580
" />
<path d="M73083 78044
L72961 78410
L73278 78410
" />
</g>
<g style="fill:#000000; fill-opacity:0.0; 
stroke:#000000; stroke-width:39.3701; stroke-opacity:1; 
stroke-linecap:round; stroke-linejoin:round;">
</g>
<g style="fill:#000000; fill-opacity:0.0; 
stroke:#000000; stroke-width:59.0551; stroke-opacity:1; 
stroke-linecap:round; stroke-linejoin:round;">
<text x="92519.7" y="78605.2"
textLength="546.494" font-size="682.415" lengthAdjust="spacingAndGlyphs"
text-anchor="start" opacity="0">5</text>
<path d="M92914 78069
L92671 78069
L92646 78312
L92671 78288
L92719 78263
L92841 78263
L92890 78288
L92914 78312
L92939 78361
L92939 78483
L92914 78532
L92890 78556
L92841 78580
L92719 78580
L92671 78556
L92646 78532
" />
</g>
<g style="fill:#000000; fill-opacity:0.0; 
stroke:#000000; stroke-width:39.3701; stroke-opacity:1; 
stroke-linecap:round; stroke-linejoin:round;">
</g>
<g style="fill:#000000; fill-opacity:0.0; 
stroke:#000000; stroke-width:59.0551; stroke-opacity:1; 
stroke-linecap:round; stroke-linejoin:round;">
<text x="112205" y="78605.2"
textLength="546.494" font-size="682.415" lengthAdjust="spacingAndGlyphs"
text-anchor="start" opacity="0">6</text>
<path d="M112575 78069
L112477 78069
L112429 78093
L112404 78117
L112356 78190
L112331 78288
L112331 78483
L112356 78532
L112380 78556
L112429 78580
L112526 78580
L112575 78556
L112599 78532
L112624 78483
L112624 78361
L112599 78312
L112575 78288
L112526 78263
L112429 78263
L112380 78288
L112356 78312
L112331 78361
" />
</g>
<g style="fill:#000000; fill-opacity:0.0; 
stroke:#000000; stroke-width:39.3701; stroke-opacity:1; 
stroke-linecap:round; stroke-linejoin:round;">
</g>
<g style="fill:#000000; fill-opacity:0.0; 
stroke:#000000; stroke-width:59.0551; stroke-opacity:1; 
stroke-linecap:round; stroke-linejoin:round;">
<path d="M3937 23622
L4724 23622
" />
</g>
<g style="fill:#000000; fill-opacity:0.0; 
stroke:#000000; stroke-width:39.3701; stroke-opacity:1; 
stroke-linecap:round; stroke-linejoin:round;">
</g>
<g style="fill:#000000; fill-opacity:0.0; 
stroke:#000000; stroke-width:59.0551; stroke-opacity:1; 
stroke-linecap:round; stroke-linejoin:round;">
<path d="M3937 43307
L4724 43307
" />
</g>
<g style="fill:#000000; fill-opacity:0.0; 
stroke:#000000; stroke-width:39.3701; stroke-opacity:1; 
stroke-linecap:round; stroke-linejoin:round;">
</g>
<g style="fill:#000000; fill-opacity:0.0; 
stroke:#000000; stroke-width:59.0551; stroke-opacity:1; 
stroke-linecap:round; stroke-linejoin:round;">
<path d="M3937 62992
L4724 62992
" />
</g>
<g style="fill:#000000; fill-opacity:0.0; 
stroke:#000000; stroke-width:39.3701; stroke-opacity:1; 
stroke-linecap:round; stroke-linejoin:round;">
</g>
<g style="fill:#000000; fill-opacity:0.0; 
stroke:#000000; stroke-width:59.0551; stroke-opacity:1; 
stroke-linecap:round; stroke-linejoin:round;">
<text x="4330.71" y="14035.4"
textLength="497.75" font-size="682.415" lengthAdjust="spacingAndGlyphs"
text-anchor="middle" opacity="0">A</text>
<path d="M4208 13864
L4452 13864
" />
<path d="M4160 14011
L4330 13499
L4501 14011
" />
</g>
<g style="fill:#000000; fill-opacity:0.0; 
stroke:#000000; stroke-width:39.3701; stroke-opacity:1; 
stroke-linecap:round; stroke-linejoin:round;">
</g>
<g style="fill:#000000; fill-opacity:0.0; 
stroke:#000000; stroke-width:59.0551; stroke-opacity:1; 
stroke-linecap:round; stroke-linejoin:round;">
<text x="4330.71" y="33720.5"
textLength="570.866" font-size="682.415" lengthAdjust="spacingAndGlyphs"
text-anchor="middle" opacity="0">B</text>
<path d="M4367 33428
L4440 33452
L4464 33476
L4489 33525
L4489 33598
L4464 33647
L4440 33671
L4391 33696
L4196 33696
L4196 33184
L4367 33184
L4416 33208
L4440 33233
L4464 33281
L4464 33330
L4440 33379
L4416 33403
L4367 33428
L4196 33428
" />
</g>
<g style="fill:#000000; fill-opacity:0.0; 
stroke:#000000; stroke-width:39.3701; stroke-opacity:1; 
stroke-linecap:round; stroke-linejoin:round;">
</g>
<g style="fill:#000000; fill-opacity:0.0; 
stroke:#000000; stroke-width:59.0551; stroke-opacity:1; 
stroke-linecap:round; stroke-linejoin:round;">
<text x="4330.71" y="53405.5"
textLength="570.866" font-size="682.415" lengthAdjust="spacingAndGlyphs"
text-anchor="middle" opacity="0">C</text>
<path d="M4489 53332
L4464 53356
L4391 53381
L4342 53381
L4269 53356
L4221 53308
L4196 53259
L4172 53161
L4172 53088
L4196 52991
L4221 52942
L4269 52893
L4342 52869
L4391 52869
L4464 52893
L4489 52918
" />
</g>
<g style="fill:#000000; fill-opacity:0.0; 
stroke:#000000; stroke-width:39.3701; stroke-opacity:1; 
stroke-linecap:round; stroke-linejoin:round;">
</g>
<g style="fill:#000000; fill-opacity:0.0; 
stroke:#000000; stroke-width:59.0551; stroke-opacity:1; 
stroke-linecap:round; stroke-linejoin:round;">
<text x="4330.71" y="73090.6"
textLength="570.866" font-size="682.415" lengthAdjust="spacingAndGlyphs"
text-anchor="middle" opacity="0">D</text>
<path d="M4196 73066
L4196 72554
L4318 72554
L4391 72578
L4440 72627
L4464 72676
L4489 72773
L4489 72846
L4464 72944
L4440 72993
L4391 73041
L4318 73066
L4196 73066
" />
</g>
<g style="fill:#000000; fill-opacity:0.0; 
stroke:#000000; stroke-width:39.3701; stroke-opacity:1; 
stroke-linecap:round; stroke-linejoin:round;">
</g>
<g style="fill:#000000; fill-opacity:0.0; 
stroke:#000000; stroke-width:59.0551; stroke-opacity:1; 
stroke-linecap:round; stroke-linejoin:round;">
<path d="M112992 23622
L112205 23622
" />
</g>
<g style="fill:#000000; fill-opacity:0.0; 
stroke:#000000; stroke-width:39.3701; stroke-opacity:1; 
stroke-linecap:round; stroke-linejoin:round;">
</g>
<g style="fill:#000000; fill-opacity:0.0; 
stroke:#000000; stroke-width:59.0551; stroke-opacity:1; 
stroke-linecap:round; stroke-linejoin:round;">
<path d="M112992 43307
L112205 43307
" />
</g>
<g style="fill:#000000; fill-opacity:0.0; 
stroke:#000000; stroke-width:39.3701; stroke-opacity:1; 
stroke-linecap:round; stroke-linejoin:round;">
</g>
<g style="fill:#000000; fill-opacity:0.0; 
stroke:#000000; stroke-width:59.0551; stroke-opacity:1; 
stroke-linecap:round; stroke-linejoin:round;">
<path d="M112992 62992
L112205 62992
" />
</g>
<g style="fill:#000000; fill-opacity:0.0; 
stroke:#000000; stroke-width:39.3701; stroke-opacity:1; 
stroke-linecap:round; stroke-linejoin:round;">
</g>
<g style="fill:#000000; fill-opacity:0.0; 
stroke:#000000; stroke-width:59.0551; stroke-opacity:1; 
stroke-linecap:round; stroke-linejoin:round;">
<text x="112599" y="14035.4"
textLength="497.75" font-size="682.415" lengthAdjust="spacingAndGlyphs"
text-anchor="middle" opacity="0">A</text>
<path d="M112477 13864
L112721 13864
" />
<path d="M112428 14011
L112599 13499
L112769 14011
" />
</g>
<g style="fill:#000000; fill-opacity:0.0; 
stroke:#000000; stroke-width:39.3701; stroke-opacity:1; 
stroke-linecap:round; stroke-linejoin:round;">
</g>
<g style="fill:#000000; fill-opacity:0.0; 
stroke:#000000; stroke-width:59.0551; stroke-opacity:1; 
stroke-linecap:round; stroke-linejoin:round;">
<text x="112599" y="33720.5"
textLength="570.866" font-size="682.415" lengthAdjust="spacingAndGlyphs"
text-anchor="middle" opacity="0">B</text>
<path d="M112635 33428
L112708 33452
L112733 33476
L112757 33525
L112757 33598
L112733 33647
L112708 33671
L112660 33696
L112465 33696
L112465 33184
L112635 33184
L112684 33208
L112708 33233
L112733 33281
L112733 33330
L112708 33379
L112684 33403
L112635 33428
L112465 33428
" />
</g>
<g style="fill:#000000; fill-opacity:0.0; 
stroke:#000000; stroke-width:39.3701; stroke-opacity:1; 
stroke-linecap:round; stroke-linejoin:round;">
</g>
<g style="fill:#000000; fill-opacity:0.0; 
stroke:#000000; stroke-width:59.0551; stroke-opacity:1; 
stroke-linecap:round; stroke-linejoin:round;">
<text x="112599" y="53405.5"
textLength="570.866" font-size="682.415" lengthAdjust="spacingAndGlyphs"
text-anchor="middle" opacity="0">C</text>
<path d="M112757 53332
L112733 53356
L112660 53381
L112611 53381
L112538 53356
L112489 53308
L112465 53259
L112440 53161
L112440 53088
L112465 52991
L112489 52942
L112538 52893
L112611 52869
L112660 52869
L112733 52893
L112757 52918
" />
</g>
<g style="fill:#000000; fill-opacity:0.0; 
stroke:#000000; stroke-width:39.3701; stroke-opacity:1; 
stroke-linecap:round; stroke-linejoin:round;">
</g>
<g style="fill:#000000; fill-opacity:0.0; 
stroke:#000000; stroke-width:59.0551; stroke-opacity:1; 
stroke-linecap:round; stroke-linejoin:round;">
<text x="112599" y="73090.6"
textLength="570.866" font-size="682.415" lengthAdjust="spacingAndGlyphs"
text-anchor="middle" opacity="0">D</text>
<path d="M112465 73066
L112465 72554
L112587 72554
L112660 72578
L112708 72627
L112733 72676
L112757 72773
L112757 72846
L112733 72944
L112708 72993
L112660 73041
L112587 73066
L112465 73066
" />
</g>
<g style="fill:#000000; fill-opacity:0.0; 
stroke:#000000; stroke-width:39.3701; stroke-opacity:1; 
stroke-linecap:round; stroke-linejoin:round;">
</g>
<g style="fill:#000000; fill-opacity:0.0; 
stroke:#000000; stroke-width:59.0551; stroke-opacity:1; 
stroke-linecap:round; stroke-linejoin:round;">
<text x="78741" y="76321.7"
textLength="2758.72" font-size="787.402" lengthAdjust="spacingAndGlyphs"
text-anchor="start" opacity="0">Date: </text>
<path d="M78911 76293
L78911 75703
L79051 75703
L79136 75731
L79192 75787
L79220 75843
L79248 75956
L79248 76040
L79220 76153
L79192 76209
L79136 76265
L79051 76293
L78911 76293
" />
<path d="M79754 76293
L79754 75984
L79726 75928
L79670 75899
L79557 75899
L79501 75928
" />
<path d="M79754 76265
L79698 76293
L79557 76293
L79501 76265
L79473 76209
L79473 76153
L79501 76096
L79557 76068
L79698 76068
L79754 76040
" />
<path d="M79951 75899
L80176 75899
" />
<path d="M80036 75703
L80036 76209
L80064 76265
L80120 76293
L80176 76293
" />
<path d="M80598 76265
L80542 76293
L80429 76293
L80373 76265
L80345 76209
L80345 75984
L80373 75928
L80429 75899
L80542 75899
L80598 75928
L80626 75984
L80626 76040
L80345 76096
" />
<path d="M80879 76237
L80907 76265
L80879 76293
L80851 76265
L80879 76237
L80879 76293
" />
<path d="M80879 75928
L80907 75956
L80879 75984
L80851 75956
L80879 75928
L80879 75984
" />
</g>
<g style="fill:#000000; fill-opacity:0.0; 
stroke:#000000; stroke-width:39.3701; stroke-opacity:1; 
stroke-linecap:round; stroke-linejoin:round;">
</g>
<g style="fill:#000000; fill-opacity:0.0; 
stroke:#000000; stroke-width:59.0551; stroke-opacity:1; 
stroke-linecap:round; stroke-linejoin:round;">
<path d="M69685 76577
L112205 76577
" />
</g>
<g style="fill:#000000; fill-opacity:0.0; 
stroke:#000000; stroke-width:39.3701; stroke-opacity:1; 
stroke-linecap:round; stroke-linejoin:round;">
</g>
<g style="fill:#000000; fill-opacity:0.0; 
stroke:#000000; stroke-width:59.0551; stroke-opacity:1; 
stroke-linecap:round; stroke-linejoin:round;">
<text x="70079.6" y="77424.1"
textLength="13529.2" font-size="787.402" lengthAdjust="spacingAndGlyphs"
text-anchor="start" opacity="0">KiCad E.D.A.  kicad (5.1.8)-1</text>
<path d="M70249 77395
L70249 76805
" />
<path d="M70587 77395
L70334 77058
" />
<path d="M70587 76805
L70249 77142
" />
<path d="M70840 77395
L70840 77002
" />
<path d="M70840 76805
L70812 76833
L70840 76861
L70868 76833
L70840 76805
L70840 76861
" />
<path d="M71458 77339
L71430 77367
L71346 77395
L71290 77395
L71205 77367
L71149 77311
L71121 77255
L71093 77142
L71093 77058
L71121 76946
L71149 76889
L71205 76833
L71290 76805
L71346 76805
L71430 76833
L71458 76861
" />
<path d="M71965 77395
L71965 77086
L71937 77030
L71880 77002
L71768 77002
L71712 77030
" />
<path d="M71965 77367
L71908 77395
L71768 77395
L71712 77367
L71683 77311
L71683 77255
L71712 77199
L71768 77171
L71908 77171
L71965 77142
" />
<path d="M72499 77395
L72499 76805
" />
<path d="M72499 77367
L72443 77395
L72330 77395
L72274 77367
L72246 77339
L72218 77283
L72218 77114
L72246 77058
L72274 77030
L72330 77002
L72443 77002
L72499 77030
" />
<path d="M73230 77086
L73427 77086
" />
<path d="M73511 77395
L73230 77395
L73230 76805
L73511 76805
" />
<path d="M73764 77339
L73793 77367
L73764 77395
L73736 77367
L73764 77339
L73764 77395
" />
<path d="M74046 77395
L74046 76805
L74186 76805
L74271 76833
L74327 76889
L74355 76946
L74383 77058
L74383 77142
L74355 77255
L74327 77311
L74271 77367
L74186 77395
L74046 77395
" />
<path d="M74636 77339
L74664 77367
L74636 77395
L74608 77367
L74636 77339
L74636 77395
" />
<path d="M74889 77227
L75171 77227
" />
<path d="M74833 77395
L75030 76805
L75227 77395
" />
<path d="M75424 77339
L75452 77367
L75424 77395
L75395 77367
L75424 77339
L75424 77395
" />
<path d="M76605 77395
L76605 76805
" />
<path d="M76661 77171
L76830 77395
" />
<path d="M76830 77002
L76605 77227
" />
<path d="M77083 77395
L77083 77002
" />
<path d="M77083 76805
L77055 76833
L77083 76861
L77111 76833
L77083 76805
L77083 76861
" />
<path d="M77617 77367
L77561 77395
L77448 77395
L77392 77367
L77364 77339
L77336 77283
L77336 77114
L77364 77058
L77392 77030
L77448 77002
L77561 77002
L77617 77030
" />
<path d="M78123 77395
L78123 77086
L78095 77030
L78039 77002
L77926 77002
L77870 77030
" />
<path d="M78123 77367
L78067 77395
L77926 77395
L77870 77367
L77842 77311
L77842 77255
L77870 77199
L77926 77171
L78067 77171
L78123 77142
" />
<path d="M78658 77395
L78658 76805
" />
<path d="M78658 77367
L78601 77395
L78489 77395
L78433 77367
L78404 77339
L78376 77283
L78376 77114
L78404 77058
L78433 77030
L78489 77002
L78601 77002
L78658 77030
" />
<path d="M79557 77620
L79529 77592
L79473 77508
L79445 77452
L79417 77367
L79389 77227
L79389 77114
L79417 76974
L79445 76889
L79473 76833
L79529 76749
L79557 76721
" />
<path d="M80064 76805
L79782 76805
L79754 77086
L79782 77058
L79839 77030
L79979 77030
L80036 77058
L80064 77086
L80092 77142
L80092 77283
L80064 77339
L80036 77367
L79979 77395
L79839 77395
L79782 77367
L79754 77339
" />
<path d="M80345 77339
L80373 77367
L80345 77395
L80317 77367
L80345 77339
L80345 77395
" />
<path d="M80935 77395
L80598 77395
" />
<path d="M80767 77395
L80767 76805
L80710 76889
L80654 76946
L80598 76974
" />
<path d="M81188 77339
L81217 77367
L81188 77395
L81160 77367
L81188 77339
L81188 77395
" />
<path d="M81554 77058
L81498 77030
L81470 77002
L81442 76946
L81442 76917
L81470 76861
L81498 76833
L81554 76805
L81667 76805
L81723 76833
L81751 76861
L81779 76917
L81779 76946
L81751 77002
L81723 77030
L81667 77058
L81554 77058
L81498 77086
L81470 77114
L81442 77171
L81442 77283
L81470 77339
L81498 77367
L81554 77395
L81667 77395
L81723 77367
L81751 77339
L81779 77283
L81779 77171
L81751 77114
L81723 77086
L81667 77058
" />
<path d="M81976 77620
L82004 77592
L82060 77508
L82088 77452
L82117 77367
L82145 77227
L82145 77114
L82117 76974
L82088 76889
L82060 76833
L82004 76749
L81976 76721
" />
<path d="M82426 77171
L82876 77171
" />
<path d="M83466 77395
L83129 77395
" />
<path d="M83298 77395
L83298 76805
L83241 76889
L83185 76946
L83129 76974
" />
</g>
<g style="fill:#000000; fill-opacity:0.0; 
stroke:#000000; stroke-width:39.3701; stroke-opacity:1; 
stroke-linecap:round; stroke-linejoin:round;">
</g>
<g style="fill:#000000; fill-opacity:0.0; 
stroke:#000000; stroke-width:59.0551; stroke-opacity:1; 
stroke-linecap:round; stroke-linejoin:round;">
<path d="M69685 75396
L112205 75396
" />
</g>
<g style="fill:#000000; fill-opacity:0.0; 
stroke:#000000; stroke-width:39.3701; stroke-opacity:1; 
stroke-linecap:round; stroke-linejoin:round;">
</g>
<g style="fill:#000000; fill-opacity:0.0; 
stroke:#000000; stroke-width:118.11; stroke-opacity:1; 
stroke-linecap:round; stroke-linejoin:round;">
<text x="103544" y="76321.7"
textLength="2336.9" font-size="787.402" lengthAdjust="spacingAndGlyphs"
text-anchor="start" opacity="0">Rev: </text>
<path d="M104099 76293
L103902 76012
" />
<path d="M103761 76293
L103761 75703
L103986 75703
L104042 75731
L104070 75759
L104099 75815
L104099 75899
L104070 75956
L104042 75984
L103986 76012
L103761 76012
" />
<path d="M104577 76265
L104520 76293
L104408 76293
L104352 76265
L104323 76209
L104323 75984
L104352 75928
L104408 75899
L104520 75899
L104577 75928
L104605 75984
L104605 76040
L104323 76096
" />
<path d="M104802 75899
L104942 76293
L105083 75899
" />
<path d="M105308 76237
L105336 76265
L105308 76293
L105280 76265
L105308 76237
L105308 76293
" />
<path d="M105308 75928
L105336 75956
L105308 75984
L105280 75956
L105308 75928
L105308 75984
" />
</g>
<g style="fill:#000000; fill-opacity:0.0; 
stroke:#000000; stroke-width:39.3701; stroke-opacity:1; 
stroke-linecap:round; stroke-linejoin:round;">
</g>
<g style="fill:#000000; fill-opacity:0.0; 
stroke:#000000; stroke-width:59.0551; stroke-opacity:1; 
stroke-linecap:round; stroke-linejoin:round;">
<text x="70079.6" y="76321.7"
textLength="3781.21" font-size="787.402" lengthAdjust="spacingAndGlyphs"
text-anchor="start" opacity="0">Size: A4</text>
<path d="M70221 76265
L70305 76293
L70446 76293
L70502 76265
L70530 76237
L70559 76181
L70559 76124
L70530 76068
L70502 76040
L70446 76012
L70334 75984
L70277 75956
L70249 75928
L70221 75871
L70221 75815
L70249 75759
L70277 75731
L70334 75703
L70474 75703
L70559 75731
" />
<path d="M70812 76293
L70812 75899
" />
<path d="M70812 75703
L70784 75731
L70812 75759
L70840 75731
L70812 75703
L70812 75759
" />
<path d="M71037 75899
L71346 75899
L71037 76293
L71346 76293
" />
<path d="M71796 76265
L71740 76293
L71627 76293
L71571 76265
L71543 76209
L71543 75984
L71571 75928
L71627 75899
L71740 75899
L71796 75928
L71824 75984
L71824 76040
L71543 76096
" />
<path d="M72077 76237
L72105 76265
L72077 76293
L72049 76265
L72077 76237
L72077 76293
" />
<path d="M72077 75928
L72105 75956
L72077 75984
L72049 75956
L72077 75928
L72077 75984
" />
<path d="M72780 76124
L73061 76124
" />
<path d="M72724 76293
L72921 75703
L73118 76293
" />
<path d="M73568 75899
L73568 76293
" />
<path d="M73427 75674
L73286 76096
L73652 76096
" />
</g>
<g style="fill:#000000; fill-opacity:0.0; 
stroke:#000000; stroke-width:39.3701; stroke-opacity:1; 
stroke-linecap:round; stroke-linejoin:round;">
</g>
<g style="fill:#000000; fill-opacity:0.0; 
stroke:#000000; stroke-width:59.0551; stroke-opacity:1; 
stroke-linecap:round; stroke-linejoin:round;">
<text x="103544" y="77424.1"
textLength="3349.27" font-size="787.402" lengthAdjust="spacingAndGlyphs"
text-anchor="start" opacity="0">Id: 1/1</text>
<path d="M103714 77395
L103714 76805
" />
<path d="M104248 77395
L104248 76805
" />
<path d="M104248 77367
L104192 77395
L104079 77395
L104023 77367
L103995 77339
L103967 77283
L103967 77114
L103995 77058
L104023 77030
L104079 77002
L104192 77002
L104248 77030
" />
<path d="M104529 77339
L104557 77367
L104529 77395
L104501 77367
L104529 77339
L104529 77395
" />
<path d="M104529 77030
L104557 77058
L104529 77086
L104501 77058
L104529 77030
L104529 77086
" />
<path d="M105570 77395
L105232 77395
" />
<path d="M105401 77395
L105401 76805
L105345 76889
L105289 76946
L105232 76974
" />
<path d="M106245 76777
L105739 77536
" />
<path d="M106751 77395
L106413 77395
" />
<path d="M106582 77395
L106582 76805
L106526 76889
L106470 76946
L106413 76974
" />
</g>
<g style="fill:#000000; fill-opacity:0.0; 
stroke:#000000; stroke-width:39.3701; stroke-opacity:1; 
stroke-linecap:round; stroke-linejoin:round;">
</g>
<g style="fill:#000000; fill-opacity:0.0; 
stroke:#000000; stroke-width:59.0551; stroke-opacity:1; 
stroke-linecap:round; stroke-linejoin:round;">
<path d="M69685 73821
L112205 73821
" />
</g>
<g style="fill:#000000; fill-opacity:0.0; 
stroke:#000000; stroke-width:39.3701; stroke-opacity:1; 
stroke-linecap:round; stroke-linejoin:round;">
</g>
<g style="fill:#000000; fill-opacity:0.0; 
stroke:#000000; stroke-width:157.48; stroke-opacity:1; 
stroke-linecap:round; stroke-linejoin:round;">
<text x="70079.6" y="74924.1"
textLength="3701.14" font-size="1049.87" lengthAdjust="spacingAndGlyphs"
text-anchor="start" opacity="0">Title: </text>
<path d="M70360 74099
L70810 74099
" />
<path d="M70486 74886
L70585 74099
" />
<path d="M70974 74886
L71039 74361
" />
<path d="M71072 74099
L71030 74136
L71063 74174
L71105 74136
L71072 74099
L71063 74174
" />
<path d="M71302 74361
L71602 74361
" />
<path d="M71447 74099
L71363 74774
L71391 74849
L71461 74886
L71536 74886
" />
<path d="M71911 74886
L71841 74849
L71813 74774
L71897 74099
" />
<path d="M72516 74849
L72436 74886
L72286 74886
L72216 74849
L72187 74774
L72225 74474
L72272 74399
L72352 74361
L72501 74361
L72572 74399
L72600 74474
L72591 74549
L72206 74624
" />
<path d="M72895 74811
L72928 74849
L72886 74886
L72853 74849
L72895 74811
L72886 74886
" />
<path d="M72947 74399
L72980 74436
L72937 74474
L72905 74436
L72947 74399
L72937 74474
" />
</g>
<g style="fill:#000000; fill-opacity:0.0; 
stroke:#000000; stroke-width:39.3701; stroke-opacity:1; 
stroke-linecap:round; stroke-linejoin:round;">
</g>
<g style="fill:#000000; fill-opacity:0.0; 
stroke:#000000; stroke-width:59.0551; stroke-opacity:1; 
stroke-linecap:round; stroke-linejoin:round;">
<text x="70079.6" y="73408.3"
textLength="14940.4" font-size="787.402" lengthAdjust="spacingAndGlyphs"
text-anchor="start" opacity="0">File: NavigationSystem.kicad_pcb</text>
<path d="M70446 73070
L70249 73070
" />
<path d="M70249 73380
L70249 72789
L70530 72789
" />
<path d="M70755 73380
L70755 72986
" />
<path d="M70755 72789
L70727 72817
L70755 72845
L70784 72817
L70755 72789
L70755 72845
" />
<path d="M71121 73380
L71065 73352
L71037 73295
L71037 72789
" />
<path d="M71571 73352
L71515 73380
L71402 73380
L71346 73352
L71318 73295
L71318 73070
L71346 73014
L71402 72986
L71515 72986
L71571 73014
L71599 73070
L71599 73127
L71318 73183
" />
<path d="M71852 73323
L71880 73352
L71852 73380
L71824 73352
L71852 73323
L71852 73380
" />
<path d="M71852 73014
L71880 73042
L71852 73070
L71824 73042
L71852 73014
L71852 73070
" />
<path d="M72583 73380
L72583 72789
L72921 73380
L72921 72789
" />
<path d="M73455 73380
L73455 73070
L73427 73014
L73371 72986
L73258 72986
L73202 73014
" />
<path d="M73455 73352
L73399 73380
L73258 73380
L73202 73352
L73174 73295
L73174 73239
L73202 73183
L73258 73155
L73399 73155
L73455 73127
" />
<path d="M73680 72986
L73821 73380
L73961 72986
" />
<path d="M74186 73380
L74186 72986
" />
<path d="M74186 72789
L74158 72817
L74186 72845
L74214 72817
L74186 72789
L74186 72845
" />
<path d="M74721 72986
L74721 73464
L74692 73520
L74664 73548
L74608 73577
L74524 73577
L74467 73548
" />
<path d="M74721 73352
L74664 73380
L74552 73380
L74496 73352
L74467 73323
L74439 73267
L74439 73099
L74467 73042
L74496 73014
L74552 72986
L74664 72986
L74721 73014
" />
<path d="M75255 73380
L75255 73070
L75227 73014
L75171 72986
L75058 72986
L75002 73014
" />
<path d="M75255 73352
L75199 73380
L75058 73380
L75002 73352
L74974 73295
L74974 73239
L75002 73183
L75058 73155
L75199 73155
L75255 73127
" />
<path d="M75452 72986
L75677 72986
" />
<path d="M75536 72789
L75536 73295
L75564 73352
L75620 73380
L75677 73380
" />
<path d="M75874 73380
L75874 72986
" />
<path d="M75874 72789
L75845 72817
L75874 72845
L75902 72817
L75874 72789
L75874 72845
" />
<path d="M76239 73380
L76183 73352
L76155 73323
L76127 73267
L76127 73099
L76155 73042
L76183 73014
L76239 72986
L76323 72986
L76380 73014
L76408 73042
L76436 73099
L76436 73267
L76408 73323
L76380 73352
L76323 73380
L76239 73380
" />
<path d="M76689 72986
L76689 73380
" />
<path d="M76689 73042
L76717 73014
L76773 72986
L76858 72986
L76914 73014
L76942 73070
L76942 73380
" />
<path d="M77195 73352
L77280 73380
L77420 73380
L77476 73352
L77505 73323
L77533 73267
L77533 73211
L77505 73155
L77476 73127
L77420 73099
L77308 73070
L77251 73042
L77223 73014
L77195 72958
L77195 72902
L77223 72845
L77251 72817
L77308 72789
L77448 72789
L77533 72817
" />
<path d="M77730 72986
L77870 73380
" />
<path d="M78011 72986
L77870 73380
L77814 73520
L77786 73548
L77730 73577
" />
<path d="M78208 73352
L78264 73380
L78376 73380
L78433 73352
L78461 73295
L78461 73267
L78433 73211
L78376 73183
L78292 73183
L78236 73155
L78208 73099
L78208 73070
L78236 73014
L78292 72986
L78376 72986
L78433 73014
" />
<path d="M78629 72986
L78854 72986
" />
<path d="M78714 72789
L78714 73295
L78742 73352
L78798 73380
L78854 73380
" />
<path d="M79276 73352
L79220 73380
L79108 73380
L79051 73352
L79023 73295
L79023 73070
L79051 73014
L79108 72986
L79220 72986
L79276 73014
L79304 73070
L79304 73127
L79023 73183
" />
<path d="M79557 73380
L79557 72986
" />
<path d="M79557 73042
L79586 73014
L79642 72986
L79726 72986
L79782 73014
L79811 73070
L79811 73380
" />
<path d="M79811 73070
L79839 73014
L79895 72986
L79979 72986
L80036 73014
L80064 73070
L80064 73380
" />
<path d="M80345 73323
L80373 73352
L80345 73380
L80317 73352
L80345 73323
L80345 73380
" />
<path d="M80626 73380
L80626 72789
" />
<path d="M80682 73155
L80851 73380
" />
<path d="M80851 72986
L80626 73211
" />
<path d="M81104 73380
L81104 72986
" />
<path d="M81104 72789
L81076 72817
L81104 72845
L81132 72817
L81104 72789
L81104 72845
" />
<path d="M81638 73352
L81582 73380
L81470 73380
L81413 73352
L81385 73323
L81357 73267
L81357 73099
L81385 73042
L81413 73014
L81470 72986
L81582 72986
L81638 73014
" />
<path d="M82145 73380
L82145 73070
L82117 73014
L82060 72986
L81948 72986
L81892 73014
" />
<path d="M82145 73352
L82088 73380
L81948 73380
L81892 73352
L81863 73295
L81863 73239
L81892 73183
L81948 73155
L82088 73155
L82145 73127
" />
<path d="M82679 73380
L82679 72789
" />
<path d="M82679 73352
L82623 73380
L82510 73380
L82454 73352
L82426 73323
L82398 73267
L82398 73099
L82426 73042
L82454 73014
L82510 72986
L82623 72986
L82679 73014
" />
<path d="M82820 73436
L83269 73436
" />
<path d="M83410 72986
L83410 73577
" />
<path d="M83410 73014
L83466 72986
L83579 72986
L83635 73014
L83663 73042
L83691 73099
L83691 73267
L83663 73323
L83635 73352
L83579 73380
L83466 73380
L83410 73352
" />
<path d="M84197 73352
L84141 73380
L84029 73380
L83973 73352
L83944 73323
L83916 73267
L83916 73099
L83944 73042
L83973 73014
L84029 72986
L84141 72986
L84197 73014
" />
<path d="M84451 73380
L84451 72789
" />
<path d="M84451 73014
L84507 72986
L84619 72986
L84676 73014
L84704 73042
L84732 73099
L84732 73267
L84704 73323
L84676 73352
L84619 73380
L84507 73380
L84451 73352
" />
</g>
<g style="fill:#000000; fill-opacity:0.0; 
stroke:#000000; stroke-width:39.3701; stroke-opacity:1; 
stroke-linecap:round; stroke-linejoin:round;">
</g>
<g style="fill:#000000; fill-opacity:0.0; 
stroke:#000000; stroke-width:59.0551; stroke-opacity:1; 
stroke-linecap:round; stroke-linejoin:round;">
<path d="M69685 71459
L112205 71459
" />
</g>
<g style="fill:#000000; fill-opacity:0.0; 
stroke:#000000; stroke-width:39.3701; stroke-opacity:1; 
stroke-linecap:round; stroke-linejoin:round;">
</g>
<g style="fill:#000000; fill-opacity:0.0; 
stroke:#000000; stroke-width:59.0551; stroke-opacity:1; 
stroke-linecap:round; stroke-linejoin:round;">
<text x="70079.6" y="72345.4"
textLength="3236.78" font-size="787.402" lengthAdjust="spacingAndGlyphs"
text-anchor="start" opacity="0">Sheet: </text>
<path d="M70221 72289
L70305 72317
L70446 72317
L70502 72289
L70530 72260
L70559 72204
L70559 72148
L70530 72092
L70502 72064
L70446 72036
L70334 72007
L70277 71979
L70249 71951
L70221 71895
L70221 71839
L70249 71782
L70277 71754
L70334 71726
L70474 71726
L70559 71754
" />
<path d="M70812 72317
L70812 71726
" />
<path d="M71065 72317
L71065 72007
L71037 71951
L70980 71923
L70896 71923
L70840 71951
L70812 71979
" />
<path d="M71571 72289
L71515 72317
L71402 72317
L71346 72289
L71318 72232
L71318 72007
L71346 71951
L71402 71923
L71515 71923
L71571 71951
L71599 72007
L71599 72064
L71318 72120
" />
<path d="M72077 72289
L72021 72317
L71908 72317
L71852 72289
L71824 72232
L71824 72007
L71852 71951
L71908 71923
L72021 71923
L72077 71951
L72105 72007
L72105 72064
L71824 72120
" />
<path d="M72274 71923
L72499 71923
" />
<path d="M72358 71726
L72358 72232
L72386 72289
L72443 72317
L72499 72317
" />
<path d="M72696 72260
L72724 72289
L72696 72317
L72668 72289
L72696 72260
L72696 72317
" />
<path d="M72696 71951
L72724 71979
L72696 72007
L72668 71979
L72696 71951
L72696 72007
" />
</g>
<g style="fill:#000000; fill-opacity:0.0; 
stroke:#000000; stroke-width:39.3701; stroke-opacity:1; 
stroke-linecap:round; stroke-linejoin:round;">
</g>
<g style="fill:#000000; fill-opacity:0.0; 
stroke:#000000; stroke-width:59.0551; stroke-opacity:1; 
stroke-linecap:round; stroke-linejoin:round;">
<path d="M77559 75396
L77559 76577
" />
</g>
<g style="fill:#000000; fill-opacity:0.0; 
stroke:#000000; stroke-width:39.3701; stroke-opacity:1; 
stroke-linecap:round; stroke-linejoin:round;">
</g>
<g style="fill:#000000; fill-opacity:0.0; 
stroke:#000000; stroke-width:59.0551; stroke-opacity:1; 
stroke-linecap:round; stroke-linejoin:round;">
<path d="M102756 75396
L102756 77955
" />
</g>
<g style="fill:#008484; fill-opacity:0.0; 
stroke:#008484; stroke-width:59.0551; stroke-opacity:1; 
stroke-linecap:round; stroke-linejoin:round;">
</g>
<g style="fill:#008484; fill-opacity:0.0; 
stroke:#008484; stroke-width:73.8189; stroke-opacity:1; 
stroke-linecap:round; stroke-linejoin:round;">
<text x="13702" y="31575.6"
textLength="340.27" font-size="393.701" lengthAdjust="spacingAndGlyphs"
text-anchor="middle" opacity="0">X</text>
<path d="M13603 31266
L13800 31561
" />
<path d="M13800 31266
L13603 31561
" />
<text x="11248" y="28863.6"
textLength="349.058" font-size="393.701" lengthAdjust="spacingAndGlyphs"
text-anchor="middle" opacity="0">Y</text>
<path d="M11248 28708
L11248 28849
" />
<path d="M11149 28554
L11248 28708
L11346 28554
" />
</g>
<g style="fill:#008484; fill-opacity:0.0; 
stroke:#008484; stroke-width:118.11; stroke-opacity:1; 
stroke-linecap:round; stroke-linejoin:round;">
<text x="11270" y="33554.2"
textLength="4662.89" font-size="629.921" lengthAdjust="spacingAndGlyphs"
text-anchor="middle" opacity="0">FXOS8700CQ</text>
<path d="M9256 33284
L9099 33284
" />
<path d="M9099 33531
L9099 33059
L9323 33059
" />
<path d="M9458 33059
L9773 33531
" />
<path d="M9773 33059
L9458 33531
" />
<path d="M10043 33059
L10133 33059
L10178 33081
L10223 33126
L10246 33216
L10246 33374
L10223 33464
L10178 33509
L10133 33531
L10043 33531
L9998 33509
L9953 33464
L9931 33374
L9931 33216
L9953 33126
L9998 33081
L10043 33059
" />
<path d="M10426 33509
L10493 33531
L10606 33531
L10651 33509
L10673 33486
L10696 33441
L10696 33396
L10673 33351
L10651 33329
L10606 33306
L10516 33284
L10471 33261
L10448 33239
L10426 33194
L10426 33149
L10448 33104
L10471 33081
L10516 33059
L10628 33059
L10696 33081
" />
<path d="M10966 33261
L10921 33239
L10898 33216
L10876 33171
L10876 33149
L10898 33104
L10921 33081
L10966 33059
L11056 33059
L11101 33081
L11123 33104
L11146 33149
L11146 33171
L11123 33216
L11101 33239
L11056 33261
L10966 33261
L10921 33284
L10898 33306
L10876 33351
L10876 33441
L10898 33486
L10921 33509
L10966 33531
L11056 33531
L11101 33509
L11123 33486
L11146 33441
L11146 33351
L11123 33306
L11101 33284
L11056 33261
" />
<path d="M11303 33059
L11618 33059
L11416 33531
" />
<path d="M11888 33059
L11933 33059
L11978 33081
L12001 33104
L12023 33149
L12046 33239
L12046 33351
L12023 33441
L12001 33486
L11978 33509
L11933 33531
L11888 33531
L11843 33509
L11821 33486
L11798 33441
L11776 33351
L11776 33239
L11798 33149
L11821 33104
L11843 33081
L11888 33059
" />
<path d="M12338 33059
L12383 33059
L12428 33081
L12451 33104
L12473 33149
L12496 33239
L12496 33351
L12473 33441
L12451 33486
L12428 33509
L12383 33531
L12338 33531
L12293 33509
L12271 33486
L12248 33441
L12226 33351
L12226 33239
L12248 33149
L12271 33104
L12293 33081
L12338 33059
" />
<path d="M12968 33486
L12946 33509
L12878 33531
L12833 33531
L12766 33509
L12721 33464
L12698 33419
L12676 33329
L12676 33261
L12698 33171
L12721 33126
L12766 33081
L12833 33059
L12878 33059
L12946 33081
L12968 33104
" />
<path d="M13485 33576
L13440 33554
L13395 33509
L13328 33441
L13283 33419
L13238 33419
" />
<path d="M13261 33531
L13216 33509
L13171 33464
L13148 33374
L13148 33216
L13171 33126
L13216 33081
L13261 33059
L13350 33059
L13395 33081
L13440 33126
L13463 33216
L13463 33374
L13440 33464
L13395 33509
L13350 33531
L13261 33531
" />
</g>
<g style="fill:#008484; fill-opacity:0.0; 
stroke:#008484; stroke-width:47.2441; stroke-opacity:1; 
stroke-linecap:round; stroke-linejoin:round;">
<path d="M8606 33982
L8608 28414
" />
<path d="M13980 33986
L8606 33982
" />
<path d="M13980 28412
L13980 33986
" />
<path d="M8592 28404
L13980 28412
" />
</g>
<g style="fill:#008484; fill-opacity:0.0; 
stroke:#008484; stroke-width:49.2126; stroke-opacity:1; 
stroke-linecap:round; stroke-linejoin:round;">
<g transform="rotate(-90 40495 16855)">
<text x="40495" y="16953.4"
textLength="678.478" font-size="262.467" lengthAdjust="spacingAndGlyphs"
text-anchor="middle" opacity="0">3v3</text>
</g>
<path d="M40387 17089
L40387 16967
L40462 17033
L40462 17004
L40471 16986
L40480 16976
L40499 16967
L40546 16967
L40565 16976
L40574 16986
L40584 17004
L40584 17061
L40574 17079
L40565 17089
" />
<path d="M40452 16901
L40584 16855
L40452 16808
" />
<path d="M40387 16751
L40387 16630
L40462 16695
L40462 16667
L40471 16648
L40480 16639
L40499 16630
L40546 16630
L40565 16639
L40574 16648
L40584 16667
L40584 16723
L40574 16742
L40565 16751
" />
<g transform="rotate(-90 39005 16860)">
<text x="39005" y="16958.4"
textLength="663.902" font-size="262.467" lengthAdjust="spacingAndGlyphs"
text-anchor="middle" opacity="0">GND</text>
</g>
<path d="M38906 17009
L38897 17028
L38897 17056
L38906 17084
L38925 17103
L38944 17113
L38981 17122
L39009 17122
L39047 17113
L39065 17103
L39084 17084
L39094 17056
L39094 17038
L39084 17009
L39075 17000
L39009 17000
L39009 17038
" />
<path d="M39094 16916
L38897 16916
L39094 16803
L38897 16803
" />
<path d="M39094 16710
L38897 16710
L38897 16663
L38906 16635
L38925 16616
L38944 16606
L38981 16597
L39009 16597
L39047 16606
L39065 16616
L39084 16635
L39094 16663
L39094 16710
" />
<g transform="rotate(-90 39990 16795)">
<text x="39990" y="16893.4"
textLength="401.434" font-size="262.467" lengthAdjust="spacingAndGlyphs"
text-anchor="middle" opacity="0">TX</text>
</g>
<path d="M39882 16944
L39882 16832
" />
<path d="M40079 16888
L39882 16888
" />
<path d="M39882 16785
L40079 16654
" />
<path d="M39882 16654
L40079 16785
" />
<g transform="rotate(-90 39500 16785)">
<text x="39500" y="16883.4"
textLength="448.303" font-size="262.467" lengthAdjust="spacingAndGlyphs"
text-anchor="middle" opacity="0">RX</text>
</g>
<path d="M39589 16817
L39495 16883
" />
<path d="M39589 16930
L39392 16930
L39392 16855
L39401 16836
L39410 16827
L39429 16817
L39457 16817
L39476 16827
L39485 16836
L39495 16855
L39495 16930
" />
<path d="M39392 16752
L39589 16620
" />
<path d="M39392 16620
L39589 16752
" />
<text x="17545" y="21313.4"
textLength="588.911" font-size="262.467" lengthAdjust="spacingAndGlyphs"
text-anchor="middle" opacity="0">12v</text>
<path d="M17432 21304
L17320 21304
" />
<path d="M17376 21304
L17376 21107
L17357 21135
L17338 21154
L17320 21163
" />
<path d="M17507 21125
L17516 21116
L17535 21107
L17582 21107
L17601 21116
L17610 21125
L17619 21144
L17619 21163
L17610 21191
L17498 21304
L17619 21304
" />
<path d="M17685 21172
L17732 21304
L17779 21172
" />
<text x="17715" y="17543.4"
textLength="682.649" font-size="262.467" lengthAdjust="spacingAndGlyphs"
text-anchor="middle" opacity="0">3.3v</text>
<path d="M17433 17337
L17555 17337
L17490 17412
L17518 17412
L17536 17421
L17546 17430
L17555 17449
L17555 17496
L17546 17515
L17536 17524
L17518 17534
L17461 17534
L17443 17524
L17433 17515
" />
<path d="M17640 17515
L17649 17524
L17640 17534
L17630 17524
L17640 17515
L17640 17534
" />
<path d="M17715 17337
L17836 17337
L17771 17412
L17799 17412
L17818 17421
L17827 17430
L17836 17449
L17836 17496
L17827 17515
L17818 17524
L17799 17534
L17743 17534
L17724 17524
L17715 17515
" />
<path d="M17902 17402
L17949 17534
L17996 17402
" />
<text x="17660" y="18623.4"
textLength="588.911" font-size="262.467" lengthAdjust="spacingAndGlyphs"
text-anchor="middle" opacity="0">12v</text>
<path d="M17547 18614
L17435 18614
" />
<path d="M17491 18614
L17491 18417
L17472 18445
L17453 18464
L17435 18473
" />
<path d="M17622 18435
L17631 18426
L17650 18417
L17697 18417
L17716 18426
L17725 18435
L17734 18454
L17734 18473
L17725 18501
L17613 18614
L17734 18614
" />
<path d="M17800 18482
L17847 18614
L17894 18482
" />
<text x="17490" y="15848.4"
textLength="588.911" font-size="262.467" lengthAdjust="spacingAndGlyphs"
text-anchor="middle" opacity="0">12v</text>
<path d="M17377 15839
L17265 15839
" />
<path d="M17321 15839
L17321 15642
L17302 15670
L17283 15689
L17265 15698
" />
<path d="M17452 15660
L17461 15651
L17480 15642
L17527 15642
L17546 15651
L17555 15660
L17564 15679
L17564 15698
L17555 15726
L17443 15839
L17564 15839
" />
<path d="M17630 15707
L17677 15839
L17724 15707
" />
<text x="17545" y="14768.4"
textLength="682.649" font-size="262.467" lengthAdjust="spacingAndGlyphs"
text-anchor="middle" opacity="0">3.3v</text>
<path d="M17263 14562
L17385 14562
L17320 14637
L17348 14637
L17366 14646
L17376 14655
L17385 14674
L17385 14721
L17376 14740
L17366 14749
L17348 14759
L17291 14759
L17273 14749
L17263 14740
" />
<path d="M17470 14740
L17479 14749
L17470 14759
L17460 14749
L17470 14740
L17470 14759
" />
<path d="M17545 14562
L17666 14562
L17601 14637
L17629 14637
L17648 14646
L17657 14655
L17666 14674
L17666 14721
L17657 14740
L17648 14749
L17629 14759
L17573 14759
L17554 14749
L17545 14740
" />
<path d="M17732 14627
L17779 14759
L17826 14627
" />
</g>
<g style="fill:#008484; fill-opacity:0.0; 
stroke:#008484; stroke-width:59.0551; stroke-opacity:1; 
stroke-linecap:round; stroke-linejoin:round;">
<g transform="rotate(-90 41620 15265)">
<text x="41620" y="15461.9"
textLength="1882.5" font-size="524.934" lengthAdjust="spacingAndGlyphs"
text-anchor="middle" opacity="0">UART6</text>
</g>
<path d="M41404 16080
L41723 16080
L41760 16061
L41779 16043
L41798 16005
L41798 15930
L41779 15893
L41760 15874
L41723 15855
L41404 15855
" />
<path d="M41685 15686
L41685 15499
" />
<path d="M41798 15724
L41404 15593
L41798 15461
" />
<path d="M41798 15105
L41610 15236
" />
<path d="M41798 15330
L41404 15330
L41404 15180
L41423 15143
L41441 15124
L41479 15105
L41535 15105
L41573 15124
L41591 15143
L41610 15180
L41610 15330
" />
<path d="M41404 14993
L41404 14768
" />
<path d="M41798 14880
L41404 14880
" />
<path d="M41404 14468
L41404 14543
L41423 14580
L41441 14599
L41498 14636
L41573 14655
L41723 14655
L41760 14636
L41779 14618
L41798 14580
L41798 14505
L41779 14468
L41760 14449
L41723 14430
L41629 14430
L41591 14449
L41573 14468
L41554 14505
L41554 14580
L41573 14618
L41591 14636
L41629 14655
" />
</g>
<g style="fill:#008484; fill-opacity:0.0; 
stroke:#008484; stroke-width:98.4252; stroke-opacity:1; 
stroke-linecap:round; stroke-linejoin:round;">
<text x="14935" y="44411.9"
textLength="4763.69" font-size="524.934" lengthAdjust="spacingAndGlyphs"
text-anchor="middle" opacity="0">ublox neo-m8q</text>
<path d="M12854 44130
L12854 44393
" />
<path d="M12685 44130
L12685 44336
L12704 44374
L12741 44393
L12797 44393
L12835 44374
L12854 44355
" />
<path d="M13041 44393
L13041 43999
" />
<path d="M13041 44149
L13078 44130
L13153 44130
L13191 44149
L13210 44168
L13228 44205
L13228 44318
L13210 44355
L13191 44374
L13153 44393
L13078 44393
L13041 44374
" />
<path d="M13453 44393
L13416 44374
L13397 44336
L13397 43999
" />
<path d="M13660 44393
L13622 44374
L13603 44355
L13585 44318
L13585 44205
L13603 44168
L13622 44149
L13660 44130
L13716 44130
L13753 44149
L13772 44168
L13791 44205
L13791 44318
L13772 44355
L13753 44374
L13716 44393
L13660 44393
" />
<path d="M13922 44393
L14128 44130
" />
<path d="M13922 44130
L14128 44393
" />
<path d="M14578 44130
L14578 44393
" />
<path d="M14578 44168
L14597 44149
L14635 44130
L14691 44130
L14728 44149
L14747 44186
L14747 44393
" />
<path d="M15084 44374
L15047 44393
L14972 44393
L14935 44374
L14916 44336
L14916 44186
L14935 44149
L14972 44130
L15047 44130
L15084 44149
L15103 44186
L15103 44224
L14916 44261
" />
<path d="M15328 44393
L15291 44374
L15272 44355
L15253 44318
L15253 44205
L15272 44168
L15291 44149
L15328 44130
L15384 44130
L15422 44149
L15441 44168
L15459 44205
L15459 44318
L15441 44355
L15422 44374
L15384 44393
L15328 44393
" />
<path d="M15628 44243
L15928 44243
" />
<path d="M16116 44393
L16116 44130
" />
<path d="M16116 44168
L16134 44149
L16172 44130
L16228 44130
L16266 44149
L16284 44186
L16284 44393
" />
<path d="M16284 44186
L16303 44149
L16341 44130
L16397 44130
L16434 44149
L16453 44186
L16453 44393
" />
<path d="M16697 44168
L16659 44149
L16641 44130
L16622 44093
L16622 44074
L16641 44036
L16659 44018
L16697 43999
L16772 43999
L16809 44018
L16828 44036
L16847 44074
L16847 44093
L16828 44130
L16809 44149
L16772 44168
L16697 44168
L16659 44186
L16641 44205
L16622 44243
L16622 44318
L16641 44355
L16659 44374
L16697 44393
L16772 44393
L16809 44374
L16828 44355
L16847 44318
L16847 44243
L16828 44205
L16809 44186
L16772 44168
" />
<path d="M17184 44130
L17184 44524
" />
<path d="M17184 44374
L17147 44393
L17072 44393
L17034 44374
L17015 44355
L16997 44318
L16997 44205
L17015 44168
L17034 44149
L17072 44130
L17147 44130
L17184 44149
" />
</g>
<g style="fill:#008484; fill-opacity:0.0; 
stroke:#008484; stroke-width:147.638; stroke-opacity:1; 
stroke-linecap:round; stroke-linejoin:round;">
<text x="46925" y="17844.3"
textLength="5054.84" font-size="944.882" lengthAdjust="spacingAndGlyphs"
text-anchor="middle" opacity="0">COVISART</text>
<path d="M45035 17743
L45001 17776
L44900 17810
L44832 17810
L44731 17776
L44664 17709
L44630 17641
L44596 17506
L44596 17405
L44630 17270
L44664 17203
L44731 17135
L44832 17101
L44900 17101
L45001 17135
L45035 17169
" />
<path d="M45473 17101
L45608 17101
L45676 17135
L45743 17203
L45777 17338
L45777 17574
L45743 17709
L45676 17776
L45608 17810
L45473 17810
L45406 17776
L45338 17709
L45305 17574
L45305 17338
L45338 17203
L45406 17135
L45473 17101
" />
<path d="M45980 17101
L46216 17810
L46452 17101
" />
<path d="M46688 17810
L46688 17101
" />
<path d="M46992 17776
L47093 17810
L47262 17810
L47329 17776
L47363 17743
L47397 17675
L47397 17608
L47363 17540
L47329 17506
L47262 17473
L47127 17439
L47059 17405
L47026 17371
L46992 17304
L46992 17236
L47026 17169
L47059 17135
L47127 17101
L47296 17101
L47397 17135
" />
<path d="M47667 17608
L48004 17608
" />
<path d="M47599 17810
L47836 17101
L48072 17810
" />
<path d="M48713 17810
L48477 17473
" />
<path d="M48308 17810
L48308 17101
L48578 17101
L48646 17135
L48679 17169
L48713 17236
L48713 17338
L48679 17405
L48646 17439
L48578 17473
L48308 17473
" />
<path d="M48916 17101
L49320 17101
" />
<path d="M49118 17810
L49118 17101
" />
</g>
<g style="fill:#008484; fill-opacity:0.0; 
stroke:#008484; stroke-width:59.0551; stroke-opacity:1; 
stroke-linecap:round; stroke-linejoin:round;">
<text x="19704.7" y="24921.3"
textLength="3836.47" font-size="472.441" lengthAdjust="spacingAndGlyphs"
text-anchor="middle" opacity="0">JLCJLCJLCJLC</text>
<path d="M18068 24550
L18068 24803
L18051 24853
L18017 24887
L17966 24904
L17933 24904
" />
<path d="M18405 24904
L18236 24904
L18236 24550
" />
<path d="M18726 24870
L18709 24887
L18658 24904
L18624 24904
L18574 24887
L18540 24853
L18523 24820
L18506 24752
L18506 24701
L18523 24634
L18540 24600
L18574 24566
L18624 24550
L18658 24550
L18709 24566
L18726 24583
" />
<path d="M18979 24550
L18979 24803
L18962 24853
L18928 24887
L18877 24904
L18844 24904
" />
<path d="M19316 24904
L19147 24904
L19147 24550
" />
<path d="M19637 24870
L19620 24887
L19569 24904
L19535 24904
L19485 24887
L19451 24853
L19434 24820
L19417 24752
L19417 24701
L19434 24634
L19451 24600
L19485 24566
L19535 24550
L19569 24550
L19620 24566
L19637 24583
" />
<path d="M19890 24550
L19890 24803
L19873 24853
L19839 24887
L19789 24904
L19755 24904
" />
<path d="M20227 24904
L20059 24904
L20059 24550
" />
<path d="M20548 24870
L20531 24887
L20480 24904
L20447 24904
L20396 24887
L20362 24853
L20345 24820
L20329 24752
L20329 24701
L20345 24634
L20362 24600
L20396 24566
L20447 24550
L20480 24550
L20531 24566
L20548 24583
" />
<path d="M20801 24550
L20801 24803
L20784 24853
L20750 24887
L20700 24904
L20666 24904
" />
<path d="M21138 24904
L20970 24904
L20970 24550
" />
<path d="M21459 24870
L21442 24887
L21392 24904
L21358 24904
L21307 24887
L21273 24853
L21257 24820
L21240 24752
L21240 24701
L21257 24634
L21273 24600
L21307 24566
L21358 24550
L21392 24550
L21442 24566
L21459 24583
" />
<text x="47000" y="18637.5"
textLength="8588.21" font-size="524.934" lengthAdjust="spacingAndGlyphs"
text-anchor="middle" opacity="0">FarmCase - Smart Spraying</text>
<path d="M42969 18457
L42838 18457
" />
<path d="M42838 18622
L42838 18307
L43025 18307
" />
<path d="M43344 18622
L43344 18457
L43325 18427
L43287 18412
L43212 18412
L43175 18427
" />
<path d="M43344 18607
L43306 18622
L43212 18622
L43175 18607
L43156 18577
L43156 18547
L43175 18517
L43212 18502
L43306 18502
L43344 18487
" />
<path d="M43531 18622
L43531 18412
" />
<path d="M43531 18472
L43550 18442
L43569 18427
L43606 18412
L43644 18412
" />
<path d="M43775 18622
L43775 18412
" />
<path d="M43775 18442
L43794 18427
L43831 18412
L43887 18412
L43925 18427
L43944 18457
L43944 18622
" />
<path d="M43944 18457
L43962 18427
L44000 18412
L44056 18412
L44094 18427
L44112 18457
L44112 18622
" />
<path d="M44525 18592
L44506 18607
L44450 18622
L44412 18622
L44356 18607
L44319 18577
L44300 18547
L44281 18487
L44281 18442
L44300 18382
L44319 18352
L44356 18322
L44412 18307
L44450 18307
L44506 18322
L44525 18337
" />
<path d="M44862 18622
L44862 18457
L44844 18427
L44806 18412
L44731 18412
L44694 18427
" />
<path d="M44862 18607
L44825 18622
L44731 18622
L44694 18607
L44675 18577
L44675 18547
L44694 18517
L44731 18502
L44825 18502
L44862 18487
" />
<path d="M45031 18607
L45068 18622
L45143 18622
L45181 18607
L45200 18577
L45200 18562
L45181 18532
L45143 18517
L45087 18517
L45050 18502
L45031 18472
L45031 18457
L45050 18427
L45087 18412
L45143 18412
L45181 18427
" />
<path d="M45518 18607
L45481 18622
L45406 18622
L45368 18607
L45350 18577
L45350 18457
L45368 18427
L45406 18412
L45481 18412
L45518 18427
L45537 18457
L45537 18487
L45350 18517
" />
<path d="M46006 18502
L46306 18502
" />
<path d="M46775 18607
L46831 18622
L46925 18622
L46962 18607
L46981 18592
L47000 18562
L47000 18532
L46981 18502
L46962 18487
L46925 18472
L46850 18457
L46812 18442
L46793 18427
L46775 18397
L46775 18367
L46793 18337
L46812 18322
L46850 18307
L46943 18307
L47000 18322
" />
<path d="M47168 18622
L47168 18412
" />
<path d="M47168 18442
L47187 18427
L47224 18412
L47281 18412
L47318 18427
L47337 18457
L47337 18622
" />
<path d="M47337 18457
L47356 18427
L47393 18412
L47449 18412
L47487 18427
L47506 18457
L47506 18622
" />
<path d="M47862 18622
L47862 18457
L47843 18427
L47806 18412
L47731 18412
L47693 18427
" />
<path d="M47862 18607
L47824 18622
L47731 18622
L47693 18607
L47674 18577
L47674 18547
L47693 18517
L47731 18502
L47824 18502
L47862 18487
" />
<path d="M48049 18622
L48049 18412
" />
<path d="M48049 18472
L48068 18442
L48087 18427
L48124 18412
L48162 18412
" />
<path d="M48237 18412
L48387 18412
" />
<path d="M48293 18307
L48293 18577
L48312 18607
L48349 18622
L48387 18622
" />
<path d="M48799 18607
L48856 18622
L48949 18622
L48987 18607
L49005 18592
L49024 18562
L49024 18532
L49005 18502
L48987 18487
L48949 18472
L48874 18457
L48837 18442
L48818 18427
L48799 18397
L48799 18367
L48818 18337
L48837 18322
L48874 18307
L48968 18307
L49024 18322
" />
<path d="M49193 18412
L49193 18727
" />
<path d="M49193 18427
L49230 18412
L49305 18412
L49343 18427
L49362 18442
L49380 18472
L49380 18562
L49362 18592
L49343 18607
L49305 18622
L49230 18622
L49193 18607
" />
<path d="M49549 18622
L49549 18412
" />
<path d="M49549 18472
L49568 18442
L49587 18427
L49624 18412
L49662 18412
" />
<path d="M49962 18622
L49962 18457
L49943 18427
L49905 18412
L49830 18412
L49793 18427
" />
<path d="M49962 18607
L49924 18622
L49830 18622
L49793 18607
L49774 18577
L49774 18547
L49793 18517
L49830 18502
L49924 18502
L49962 18487
" />
<path d="M50112 18412
L50205 18622
" />
<path d="M50299 18412
L50205 18622
L50168 18697
L50149 18712
L50112 18727
" />
<path d="M50449 18622
L50449 18412
" />
<path d="M50449 18307
L50430 18322
L50449 18337
L50468 18322
L50449 18307
L50449 18337
" />
<path d="M50637 18412
L50637 18622
" />
<path d="M50637 18442
L50655 18427
L50693 18412
L50749 18412
L50787 18427
L50805 18457
L50805 18622
" />
<path d="M51161 18412
L51161 18667
L51143 18697
L51124 18712
L51086 18727
L51030 18727
L50993 18712
" />
<path d="M51161 18607
L51124 18622
L51049 18622
L51011 18607
L50993 18592
L50974 18562
L50974 18472
L50993 18442
L51011 18427
L51049 18412
L51124 18412
L51161 18427
" />
<text x="9362.2" y="22204.7"
textLength="1295.37" font-size="524.934" lengthAdjust="spacingAndGlyphs"
text-anchor="middle" opacity="0">RUN</text>
<path d="M9071 22185
L8940 21998
" />
<path d="M8846 22185
L8846 21792
L8996 21792
L9034 21811
L9052 21829
L9071 21867
L9071 21923
L9052 21961
L9034 21979
L8996 21998
L8846 21998
" />
<path d="M9240 21792
L9240 22110
L9259 22148
L9277 22167
L9315 22185
L9390 22185
L9427 22167
L9446 22148
L9465 22110
L9465 21792
" />
<path d="M9652 22185
L9652 21792
L9877 22185
L9877 21792
" />
</g>
<g style="fill:#008484; fill-opacity:0.0; 
stroke:#008484; stroke-width:39.3701; stroke-opacity:1; 
stroke-linecap:round; stroke-linejoin:round;">
<text x="27677.2" y="15885.8"
textLength="466.723" font-size="419.947" lengthAdjust="spacingAndGlyphs"
text-anchor="middle" opacity="0">+</text>
<path d="M27557 15750
L27797 15750
" />
<path d="M27677 15870
L27677 15630
" />
<text x="16830.7" y="26811"
textLength="441.132" font-size="419.947" lengthAdjust="spacingAndGlyphs"
text-anchor="middle" opacity="0">+</text>
<path d="M16710 26676
L16950 26676
" />
<path d="M16830 26796
L16830 26556
" />
</g>
<g style="fill:#008484; fill-opacity:0.0; 
stroke:#008484; stroke-width:59.0551; stroke-opacity:1; 
stroke-linecap:round; stroke-linejoin:round;">
<text x="54420" y="19305.3"
textLength="782.34" font-size="787.402" lengthAdjust="spacingAndGlyphs"
text-anchor="middle" opacity="0">+</text>
<path d="M54195 19052
L54644 19052
" />
<path d="M54420 19277
L54420 18827
" />
</g>
<g style="fill:#008484; fill-opacity:0.0; 
stroke:#008484; stroke-width:39.3701; stroke-opacity:1; 
stroke-linecap:round; stroke-linejoin:round;">
<text x="28818.9" y="26153.9"
textLength="466.723" font-size="419.947" lengthAdjust="spacingAndGlyphs"
text-anchor="middle" opacity="0">+</text>
<path d="M28698 26018
L28938 26018
" />
<path d="M28818 26138
L28818 25898
" />
<text x="40187" y="24252"
textLength="441.132" font-size="419.947" lengthAdjust="spacingAndGlyphs"
text-anchor="middle" opacity="0">+</text>
<path d="M40067 24116
L40306 24116
" />
<path d="M40187 24236
L40187 23997
" />
</g>
<g style="fill:#008484; fill-opacity:0.0; 
stroke:#008484; stroke-width:47.2441; stroke-opacity:1; 
stroke-linecap:round; stroke-linejoin:round;">
<path d="M26377 15649
L26082 15354
" />
<path d="M26377 15452
L26377 15649
" />
<path d="M26771 15452
L26377 15452
" />
<path d="M26771 15255
L26771 15452
" />
<path d="M26377 15255
L26771 15255
" />
<path d="M26377 15059
L26377 15255
" />
<path d="M26082 15354
L26377 15059
" />
</g>
<g style="fill:#008484; fill-opacity:1.0; 
stroke:#008484; stroke-width:0; stroke-opacity:1; 
stroke-linecap:round; stroke-linejoin:round;">
<circle cx="30698.8" cy="21063" r="37.5413" /> 
</g>
<g style="fill:#008484; fill-opacity:0.0; 
stroke:#008484; stroke-width:47.2441; stroke-opacity:1; 
stroke-linecap:round; stroke-linejoin:round;">
</g>
<g style="fill:#008484; fill-opacity:1.0; 
stroke:#008484; stroke-width:0; stroke-opacity:1; 
stroke-linecap:round; stroke-linejoin:round;">
<circle cx="32460.6" cy="24963" r="45.6307" /> 
</g>
<g style="fill:#008484; fill-opacity:0.0; 
stroke:#008484; stroke-width:47.2441; stroke-opacity:1; 
stroke-linecap:round; stroke-linejoin:round;">
</g>
<g style="fill:#008484; fill-opacity:1.0; 
stroke:#008484; stroke-width:0; stroke-opacity:1; 
stroke-linecap:round; stroke-linejoin:round;">
<circle cx="29872" cy="29352.8" r="45.6307" /> 
</g>
<g style="fill:#008484; fill-opacity:0.0; 
stroke:#008484; stroke-width:47.2441; stroke-opacity:1; 
stroke-linecap:round; stroke-linejoin:round;">
</g>
<g style="fill:#008484; fill-opacity:1.0; 
stroke:#008484; stroke-width:0; stroke-opacity:1; 
stroke-linecap:round; stroke-linejoin:round;">
<circle cx="16939" cy="23228.3" r="45.6307" /> 
</g>
<g style="fill:#008484; fill-opacity:0.0; 
stroke:#008484; stroke-width:0; stroke-opacity:1; 
stroke-linecap:round; stroke-linejoin:round;">
</g>
<g style="fill:#008484; fill-opacity:0.0; 
stroke:#008484; stroke-width:59.0551; stroke-opacity:1; 
stroke-linecap:round; stroke-linejoin:round;">
<text x="16748" y="28289.6"
textLength="1625.98" font-size="393.701" lengthAdjust="spacingAndGlyphs"
text-anchor="middle" opacity="0">STATUS</text>
<path d="M16016 28261
L16059 28275
L16129 28275
L16157 28261
L16171 28247
L16185 28219
L16185 28191
L16171 28163
L16157 28149
L16129 28134
L16073 28120
L16044 28106
L16030 28092
L16016 28064
L16016 28036
L16030 28008
L16044 27994
L16073 27980
L16143 27980
L16185 27994
" />
<path d="M16269 27980
L16438 27980
" />
<path d="M16354 28275
L16354 27980
" />
<path d="M16523 28191
L16663 28191
" />
<path d="M16494 28275
L16593 27980
L16691 28275
" />
<path d="M16748 27980
L16916 27980
" />
<path d="M16832 28275
L16832 27980
" />
<path d="M17015 27980
L17015 28219
L17029 28247
L17043 28261
L17071 28275
L17127 28275
L17155 28261
L17169 28247
L17183 28219
L17183 27980
" />
<path d="M17310 28261
L17352 28275
L17422 28275
L17451 28261
L17465 28247
L17479 28219
L17479 28191
L17465 28163
L17451 28149
L17422 28134
L17366 28120
L17338 28106
L17324 28092
L17310 28064
L17310 28036
L17324 28008
L17338 27994
L17366 27980
L17436 27980
L17479 27994
" />
<text x="28267.7" y="15000"
textLength="1164.14" font-size="524.934" lengthAdjust="spacingAndGlyphs"
text-anchor="middle" opacity="0">3V3</text>
<path d="M27780 14587
L28023 14587
L27892 14737
L27949 14737
L27986 14756
L28005 14775
L28023 14812
L28023 14906
L28005 14943
L27986 14962
L27949 14981
L27836 14981
L27799 14962
L27780 14943
" />
<path d="M28136 14587
L28267 14981
L28398 14587
" />
<path d="M28492 14587
L28736 14587
L28605 14737
L28661 14737
L28698 14756
L28717 14775
L28736 14812
L28736 14906
L28717 14943
L28698 14962
L28661 14981
L28548 14981
L28511 14962
L28492 14943
" />
<text x="22381.9" y="16338.6"
textLength="1295.37" font-size="524.934" lengthAdjust="spacingAndGlyphs"
text-anchor="middle" opacity="0">SWD</text>
<path d="M21847 16301
L21903 16319
L21997 16319
L22035 16301
L22053 16282
L22072 16244
L22072 16207
L22053 16169
L22035 16151
L21997 16132
L21922 16113
L21885 16094
L21866 16076
L21847 16038
L21847 16001
L21866 15963
L21885 15944
L21922 15926
L22016 15926
L22072 15944
" />
<path d="M22203 15926
L22297 16319
L22372 16038
L22447 16319
L22541 15926
" />
<path d="M22691 16319
L22691 15926
L22784 15926
L22841 15944
L22878 15982
L22897 16019
L22916 16094
L22916 16151
L22897 16226
L22878 16263
L22841 16301
L22784 16319
L22691 16319
" />
<text x="9480.31" y="19232.3"
textLength="1595.33" font-size="524.934" lengthAdjust="spacingAndGlyphs"
text-anchor="middle" opacity="0">BOOT</text>
<path d="M8946 19007
L9002 19026
L9020 19044
L9039 19082
L9039 19138
L9020 19176
L9002 19194
L8964 19213
L8814 19213
L8814 18819
L8946 18819
L8983 18838
L9002 18857
L9020 18894
L9020 18932
L9002 18969
L8983 18988
L8946 19007
L8814 19007
" />
<path d="M9283 18819
L9358 18819
L9395 18838
L9433 18876
L9452 18951
L9452 19082
L9433 19157
L9395 19194
L9358 19213
L9283 19213
L9245 19194
L9208 19157
L9189 19082
L9189 18951
L9208 18876
L9245 18838
L9283 18819
" />
<path d="M9695 18819
L9770 18819
L9808 18838
L9845 18876
L9864 18951
L9864 19082
L9845 19157
L9808 19194
L9770 19213
L9695 19213
L9658 19194
L9620 19157
L9602 19082
L9602 18951
L9620 18876
L9658 18838
L9695 18819
" />
<path d="M9977 18819
L10202 18819
" />
<path d="M10089 19213
L10089 18819
" />
<g transform="rotate(-90 52410 21210)">
<text x="52410" y="21406.9"
textLength="2082.77" font-size="524.934" lengthAdjust="spacingAndGlyphs"
text-anchor="middle" opacity="0">POWER</text>
</g>
<path d="M52588 22119
L52194 22119
L52194 21969
L52213 21931
L52231 21913
L52269 21894
L52325 21894
L52363 21913
L52381 21931
L52400 21969
L52400 22119
" />
<path d="M52194 21650
L52194 21575
L52213 21538
L52250 21500
L52325 21481
L52456 21481
L52531 21500
L52569 21538
L52588 21575
L52588 21650
L52569 21688
L52531 21725
L52456 21744
L52325 21744
L52250 21725
L52213 21688
L52194 21650
" />
<path d="M52194 21350
L52588 21256
L52306 21181
L52588 21106
L52194 21013
" />
<path d="M52381 20863
L52381 20731
" />
<path d="M52588 20675
L52588 20863
L52194 20863
L52194 20675
" />
<path d="M52588 20281
L52400 20413
" />
<path d="M52588 20506
L52194 20506
L52194 20356
L52213 20319
L52231 20300
L52269 20281
L52325 20281
L52363 20300
L52381 20319
L52400 20356
L52400 20506
" />
<g transform="rotate(-90 35995 15265)">
<text x="35995" y="15461.9"
textLength="1257.87" font-size="524.934" lengthAdjust="spacingAndGlyphs"
text-anchor="middle" opacity="0">USB</text>
</g>
<path d="M35779 15761
L36098 15761
L36135 15743
L36154 15724
L36173 15686
L36173 15611
L36154 15574
L36135 15555
L36098 15536
L35779 15536
" />
<path d="M36154 15368
L36173 15311
L36173 15218
L36154 15180
L36135 15161
L36098 15143
L36060 15143
L36023 15161
L36004 15180
L35985 15218
L35966 15293
L35948 15330
L35929 15349
L35891 15368
L35854 15368
L35816 15349
L35798 15330
L35779 15293
L35779 15199
L35798 15143
" />
<path d="M35966 14843
L35985 14786
L36004 14768
L36041 14749
L36098 14749
L36135 14768
L36154 14786
L36173 14824
L36173 14974
L35779 14974
L35779 14843
L35798 14805
L35816 14786
L35854 14768
L35891 14768
L35929 14786
L35948 14805
L35966 14843
L35966 14974
" />
<text x="19429.1" y="17362.2"
textLength="1032.9" font-size="524.934" lengthAdjust="spacingAndGlyphs"
text-anchor="middle" opacity="0">I2C</text>
<path d="M19044 17343
L19044 16949
" />
<path d="M19213 16987
L19232 16968
L19269 16949
L19363 16949
L19401 16968
L19419 16987
L19438 17024
L19438 17062
L19419 17118
L19194 17343
L19438 17343
" />
<path d="M19832 17305
L19813 17324
L19757 17343
L19719 17343
L19663 17324
L19625 17287
L19607 17249
L19588 17174
L19588 17118
L19607 17043
L19625 17005
L19663 16968
L19719 16949
L19757 16949
L19813 16968
L19832 16987
" />
</g>
<g style="fill:#008484; fill-opacity:0.0; 
stroke:#008484; stroke-width:47.2441; stroke-opacity:1; 
stroke-linecap:round; stroke-linejoin:round;">
<path d="M10398 31943
L10313 31943
" />
<path d="M10398 31660
L10313 31660
" />
</g>
<g style="fill:#008484; fill-opacity:0.0; 
stroke:#008484; stroke-width:50; stroke-opacity:1; 
stroke-linecap:round; stroke-linejoin:round;">
<circle cx="12278.5" cy="31773.7" r="147.571" /> 
<path d="M10967 30415
L12148 30415
" />
<path d="M10967 31596
L10967 30415
" />
<path d="M12148 31596
L10967 31596
" />
<path d="M12148 30415
L12148 31596
" />
</g>
<g style="fill:#008484; fill-opacity:0.0; 
stroke:#008484; stroke-width:47.2441; stroke-opacity:1; 
stroke-linecap:round; stroke-linejoin:round;">
<path d="M9492 30944
L9371 30944
" />
<path d="M9492 31243
L9371 31243
" />
<path d="M9930 30462
L9809 30462
" />
<path d="M9930 30761
L9809 30761
" />
<path d="M12603 29626
L12482 29626
" />
<path d="M12603 29925
L12482 29925
" />
<path d="M23330 26648
L23209 26648
" />
<path d="M23330 26947
L23209 26947
" />
<path d="M10396 32294
L10311 32294
" />
<path d="M10396 32577
L10311 32577
" />
<path d="M10480 29624
L10395 29624
" />
<path d="M10480 29907
L10395 29907
" />
<path d="M12845 31593
L12930 31593
" />
<path d="M12845 31310
L12930 31310
" />
<path d="M12845 32299
L12930 32299
" />
<path d="M12845 32016
L12930 32016
" />
<path d="M45874 29509
L45874 29620
" />
<path d="M46275 29509
L46275 29620
" />
<path d="M47369 29504
L47369 29615
" />
<path d="M47770 29504
L47770 29615
" />
<path d="M38182 26753
L38615 26753
" />
<path d="M38182 26646
L38182 26753
" />
<path d="M37591 26646
L38182 26646
" />
<path d="M38182 29256
L39296 29256
" />
<path d="M38182 29363
L38182 29256
" />
<path d="M37591 29363
L38182 29363
" />
<path d="M38633 30079
L38446 30079
" />
<path d="M38633 30490
L38446 30490
" />
<path d="M41023 31654
L40836 31654
" />
<path d="M41023 32065
L40836 32065
" />
<path d="M37644 31466
L39179 31466
" />
<path d="M37644 32253
L39179 32253
" />
<path d="M37644 31466
L37644 32253
" />
<path d="M36080 29931
L35519 29931
" />
<path d="M36080 30648
L35519 30648
" />
<path d="M40469 29263
L41030 29263
" />
<path d="M40469 28546
L41030 28546
" />
<path d="M39164 25688
L39725 25688
" />
<path d="M39164 24971
L39725 24971
" />
<path d="M16142 14395
L16580 14395
" />
<path d="M16142 14695
L16142 14395
" />
<path d="M16801 14994
L17017 14994
" />
<path d="M16142 14994
L16358 14994
" />
<path d="M17017 14994
L17017 15968
" />
<path d="M16142 14994
L16142 15968
" />
<path d="M16701 15968
L17017 15968
" />
<path d="M16142 15968
L16458 15968
" />
<path d="M16137 19895
L16575 19895
" />
<path d="M16137 20195
L16137 19895
" />
<path d="M16796 20494
L17012 20494
" />
<path d="M16137 20494
L16353 20494
" />
<path d="M17012 20494
L17012 21468
" />
<path d="M16137 20494
L16137 21468
" />
<path d="M16696 21468
L17012 21468
" />
<path d="M16137 21468
L16453 21468
" />
<path d="M16147 17145
L16585 17145
" />
<path d="M16147 17445
L16147 17145
" />
<path d="M16806 17744
L17022 17744
" />
<path d="M16147 17744
L16363 17744
" />
<path d="M17022 17744
L17022 18718
" />
<path d="M16147 17744
L16147 18718
" />
<path d="M16706 18718
L17022 18718
" />
<path d="M16147 18718
L16463 18718
" />
<path d="M38354 14124
L39726 14124
" />
<path d="M38354 16376
L38354 14124
" />
<path d="M38776 16376
L38354 16376
" />
<path d="M38776 16258
L38776 16376
" />
<path d="M39726 16258
L38776 16258
" />
<path d="M41098 14124
L39726 14124
" />
<path d="M41098 16376
L41098 14124
" />
<path d="M40677 16376
L41098 16376
" />
<path d="M40677 16258
L40677 16376
" />
<path d="M39726 16258
L40677 16258
" />
<path d="M40563 16490
L40760 16490
" />
<path d="M40563 16372
L40563 16490
" />
<path d="M17673 23066
L17145 23066
" />
<path d="M17673 22692
L17673 23066
" />
<path d="M18047 22692
L17673 22692
" />
<path d="M21696 22692
L21696 23066
" />
<path d="M21322 22692
L21696 22692
" />
<path d="M17673 26716
L17673 26342
" />
<path d="M18047 26716
L17673 26716
" />
<path d="M21696 26716
L21696 26342
" />
<path d="M21322 26716
L21696 26716
" />
<path d="M51868 20919
L51868 21480
" />
<path d="M51151 20919
L51151 21480
" />
<path d="M54971 25522
L54971 27257
" />
<path d="M52868 25522
L52868 27257
" />
<path d="M12418 22038
L12418 19656
" />
<path d="M12418 19656
L15489 19656
" />
<path d="M15489 19656
L15489 22038
" />
<path d="M15489 22038
L12418 22038
" />
<path d="M12950 21999
L12950 21601
" />
<path d="M12950 21601
L14950 21601
" />
<path d="M14950 21601
L14950 21999
" />
<path d="M12418 16538
L12418 14156
" />
<path d="M12418 14156
L15489 14156
" />
<path d="M15489 14156
L15489 16538
" />
<path d="M15489 16538
L12418 16538
" />
<path d="M12950 16499
L12950 16101
" />
<path d="M12950 16101
L14950 16101
" />
<path d="M14950 16101
L14950 16499
" />
<path d="M12418 19288
L12418 16906
" />
<path d="M12418 16906
L15489 16906
" />
<path d="M15489 16906
L15489 19288
" />
<path d="M15489 19288
L12418 19288
" />
<path d="M12950 19249
L12950 18851
" />
<path d="M12950 18851
L14950 18851
" />
<path d="M14950 18851
L14950 19249
" />
<path d="M47138 27544
L46705 27544
" />
<path d="M47138 28257
L47138 27544
" />
<path d="M47729 28257
L47138 28257
" />
<path d="M47138 24875
L45120 24875
" />
<path d="M47138 24162
L47138 24875
" />
<path d="M47729 24162
L47138 24162
" />
<path d="M56150 37878
L56150 38665
" />
<path d="M55657 37878
L56150 37878
" />
<path d="M53394 41008
L53394 40713
" />
<path d="M55087 41008
L53394 41008
" />
<path d="M55087 40713
L55087 41008
" />
<path d="M55224 40713
L55087 40713
" />
<path d="M55224 40910
L55224 40713
" />
<path d="M55618 41008
L55224 40910
" />
<path d="M55618 39827
L55618 41008
" />
<path d="M55224 39925
L55618 39827
" />
<path d="M55224 40122
L55224 39925
" />
<path d="M55087 40122
L55224 40122
" />
<path d="M55087 39827
L55087 40122
" />
<path d="M53394 39827
L55087 39827
" />
<path d="M53394 40122
L53394 39827
" />
<path d="M53394 39630
L53394 39335
" />
<path d="M55087 39630
L53394 39630
" />
<path d="M55087 39335
L55087 39630
" />
<path d="M55224 39335
L55087 39335
" />
<path d="M55224 39532
L55224 39335
" />
<path d="M55618 39630
L55224 39532
" />
<path d="M55618 38449
L55618 39630
" />
<path d="M55224 38547
L55618 38449
" />
<path d="M55224 38744
L55224 38547
" />
<path d="M55087 38744
L55224 38744
" />
<path d="M55087 38449
L55087 38744
" />
<path d="M53394 38449
L55087 38449
" />
<path d="M53394 38744
L53394 38449
" />
<path d="M55996 41425
L55996 38032
" />
<path d="M53055 41425
L55996 41425
" />
<path d="M53055 38032
L53055 41425
" />
<path d="M55996 38032
L53055 38032
" />
<path d="M53394.2 40713.1 A731.531 731.531 0.0 0 0 53394.2 40122.7" />
<path d="M53394.2 39335.1 A731.531 731.531 0.0 0 0 53394.2 38744.7" />
<path d="M56150 30348
L56150 31135
" />
<path d="M55657 30348
L56150 30348
" />
<path d="M53394 33478
L53394 33183
" />
<path d="M55087 33478
L53394 33478
" />
<path d="M55087 33183
L55087 33478
" />
<path d="M55224 33183
L55087 33183
" />
<path d="M55224 33380
L55224 33183
" />
<path d="M55618 33478
L55224 33380
" />
<path d="M55618 32297
L55618 33478
" />
<path d="M55224 32395
L55618 32297
" />
<path d="M55224 32592
L55224 32395
" />
<path d="M55087 32592
L55224 32592
" />
<path d="M55087 32297
L55087 32592
" />
<path d="M53394 32297
L55087 32297
" />
<path d="M53394 32592
L53394 32297
" />
<path d="M53394 32100
L53394 31805
" />
<path d="M55087 32100
L53394 32100
" />
<path d="M55087 31805
L55087 32100
" />
<path d="M55224 31805
L55087 31805
" />
<path d="M55224 32002
L55224 31805
" />
<path d="M55618 32100
L55224 32002
" />
<path d="M55618 30919
L55618 32100
" />
<path d="M55224 31017
L55618 30919
" />
<path d="M55224 31214
L55224 31017
" />
<path d="M55087 31214
L55224 31214
" />
<path d="M55087 30919
L55087 31214
" />
<path d="M53394 30919
L55087 30919
" />
<path d="M53394 31214
L53394 30919
" />
<path d="M55996 33895
L55996 30502
" />
<path d="M53055 33895
L55996 33895
" />
<path d="M53055 30502
L53055 33895
" />
<path d="M55996 30502
L53055 30502
" />
<path d="M53394.2 33183.1 A731.531 731.531 0.0 0 0 53394.2 32592.7" />
<path d="M53394.2 31805.1 A731.531 731.531 0.0 0 0 53394.2 31214.7" />
<path d="M55996 34262
L53055 34262
" />
<path d="M53055 34262
L53055 37655
" />
<path d="M53055 37655
L55996 37655
" />
<path d="M55996 37655
L55996 34262
" />
<path d="M53394 34974
L53394 34679
" />
<path d="M53394 34679
L55087 34679
" />
<path d="M55087 34679
L55087 34974
" />
<path d="M55087 34974
L55224 34974
" />
<path d="M55224 34974
L55224 34777
" />
<path d="M55224 34777
L55618 34679
" />
<path d="M55618 34679
L55618 35860
" />
<path d="M55618 35860
L55224 35762
" />
<path d="M55224 35762
L55224 35565
" />
<path d="M55224 35565
L55087 35565
" />
<path d="M55087 35565
L55087 35860
" />
<path d="M55087 35860
L53394 35860
" />
<path d="M53394 35860
L53394 35565
" />
<path d="M53394 36352
L53394 36057
" />
<path d="M53394 36057
L55087 36057
" />
<path d="M55087 36057
L55087 36352
" />
<path d="M55087 36352
L55224 36352
" />
<path d="M55224 36352
L55224 36155
" />
<path d="M55224 36155
L55618 36057
" />
<path d="M55618 36057
L55618 37238
" />
<path d="M55618 37238
L55224 37140
" />
<path d="M55224 37140
L55224 36943
" />
<path d="M55224 36943
L55087 36943
" />
<path d="M55087 36943
L55087 37238
" />
<path d="M55087 37238
L53394 37238
" />
<path d="M53394 37238
L53394 36943
" />
<path d="M55657 34108
L56150 34108
" />
<path d="M56150 34108
L56150 34895
" />
<path d="M53394.2 36943.1 A731.531 731.531 0.0 0 0 53394.2 36352.7" />
<path d="M53394.2 35565.1 A731.531 731.531 0.0 0 0 53394.2 34974.7" />
<path d="M55966 19602
L53025 19602
" />
<path d="M53025 19602
L53025 22995
" />
<path d="M53025 22995
L55966 22995
" />
<path d="M55966 22995
L55966 19602
" />
<path d="M53364 20314
L53364 20019
" />
<path d="M53364 20019
L55057 20019
" />
<path d="M55057 20019
L55057 20314
" />
<path d="M55057 20314
L55194 20314
" />
<path d="M55194 20314
L55194 20117
" />
<path d="M55194 20117
L55588 20019
" />
<path d="M55588 20019
L55588 21200
" />
<path d="M55588 21200
L55194 21102
" />
<path d="M55194 21102
L55194 20905
" />
<path d="M55194 20905
L55057 20905
" />
<path d="M55057 20905
L55057 21200
" />
<path d="M55057 21200
L53364 21200
" />
<path d="M53364 21200
L53364 20905
" />
<path d="M53364 21692
L53364 21397
" />
<path d="M53364 21397
L55057 21397
" />
<path d="M55057 21397
L55057 21692
" />
<path d="M55057 21692
L55194 21692
" />
<path d="M55194 21692
L55194 21495
" />
<path d="M55194 21495
L55588 21397
" />
<path d="M55588 21397
L55588 22578
" />
<path d="M55588 22578
L55194 22480
" />
<path d="M55194 22480
L55194 22283
" />
<path d="M55194 22283
L55057 22283
" />
<path d="M55057 22283
L55057 22578
" />
<path d="M55057 22578
L53364 22578
" />
<path d="M53364 22578
L53364 22283
" />
<path d="M55627 19448
L56120 19448
" />
<path d="M56120 19448
L56120 20235
" />
<path d="M53364.2 22283.1 A731.531 731.531 0.0 0 0 53364.2 21692.7" />
<path d="M53364.2 20905.1 A731.531 731.531 0.0 0 0 53364.2 20314.7" />
<path d="M10891 41439
L11078 41439
" />
<path d="M10891 41850
L11078 41850
" />
</g>
<g style="fill:#008484; fill-opacity:0.0; 
stroke:#008484; stroke-width:50; stroke-opacity:1; 
stroke-linecap:round; stroke-linejoin:round;">
<path d="M7833 37165
L8856 37165
" />
<path d="M9604 37913
L9604 38936
" />
<path d="M7085 37913
L7085 38936
" />
<path d="M8856 39684
L7833 39684
" />
</g>
<g style="fill:#008484; fill-opacity:0.0; 
stroke:#008484; stroke-width:47.2441; stroke-opacity:1; 
stroke-linecap:round; stroke-linejoin:round;">
<path d="M10962 39243
L11047 39243
" />
<path d="M10962 39526
L11047 39526
" />
<path d="M10962 40193
L11047 40193
" />
<path d="M10962 40476
L11047 40476
" />
<path d="M18519 40904
L18630 40904
" />
<path d="M18519 41305
L18630 41305
" />
<path d="M18519 40134
L18630 40134
" />
<path d="M18519 40535
L18630 40535
" />
<path d="M7926 44474
L7926 44553
" />
<path d="M6296 43372
L6213 43450
" />
<path d="M6296 43883
L6213 43805
" />
<path d="M6804 43372
L6296 43372
" />
<path d="M6213 43450
L6213 43805
" />
<path d="M6296 43883
L6804 43883
" />
<path d="M6804 42801
L6804 45045
" />
<path d="M7926 43293
L7926 43962
" />
<path d="M7513 42564
L7202 42564
" />
<path d="M7202 45281
L7513 45281
" />
<path d="M16478 39150
L16291 39150
" />
<path d="M16478 38739
L16291 38739
" />
<path d="M16787 43666
L12882 43666
" />
<path d="M16787 39603
L12882 39603
" />
<path d="M12882 39662
L12882 39603
" />
<path d="M16787 39662
L16787 39603
" />
<path d="M12882 43666
L12882 43607
" />
<path d="M16787 43666
L16787 43607
" />
<path d="M17059 43607
L16787 43607
" />
<path d="M7307 21830
L7618 21830
" />
<path d="M7618 19114
L7307 19114
" />
<path d="M8031 19842
L8031 20511
" />
<path d="M6909 19350
L6909 21594
" />
<path d="M8031 21023
L8031 21102
" />
<path d="M25781 15446
L25781 16836
" />
<path d="M23234 15446
L23234 16836
" />
<path d="M25755 14925
L25755 15446
" />
<path d="M25781 15446
L25755 15446
" />
<path d="M25781 16836
L25755 16836
" />
<path d="M23259 15446
L23234 15446
" />
<path d="M23259 16836
L23234 16836
" />
<path d="M30570 27279
L31044 27279
" />
<path d="M30570 26563
L31044 26563
" />
<path d="M29044 31151
L29518 31151
" />
<path d="M29044 30435
L29518 30435
" />
<path d="M29044 31517
L29518 31517
" />
<path d="M29044 32234
L29518 32234
" />
<path d="M28874 28530
L28874 28658
" />
<path d="M29275 28530
L29275 28658
" />
<path d="M18134 20233
L18134 20361
" />
<path d="M17732 20233
L17732 20361
" />
<path d="M21407 28055
L21535 28055
" />
<path d="M21407 27653
L21535 27653
" />
<path d="M22648 22997
L22648 22868
" />
<path d="M23050 22997
L23050 22868
" />
<path d="M31988 23870
L31988 24657
" />
<path d="M31988 24657
L33523 24657
" />
<path d="M31988 23870
L33523 23870
" />
<path d="M27263 26232
L28799 26232
" />
<path d="M27263 27020
L28799 27020
" />
<path d="M27263 26232
L27263 27020
" />
<path d="M27947 15742
L28847 15742
" />
<path d="M28847 15742
L28847 15163
" />
<path d="M28847 15163
L27947 15163
" />
<path d="M17415 27848
L17415 26948
" />
<path d="M16836 27848
L17415 27848
" />
<path d="M16836 26948
L16836 27848
" />
<path d="M30570 24622
L31044 24622
" />
<path d="M30570 23905
L31044 23905
" />
<path d="M30535 25768
L30535 25564
" />
<path d="M29976 25768
L29976 25564
" />
<path d="M20288 16382
L20288 16500
" />
<path d="M20288 16500
L20485 16500
" />
<path d="M19451 16268
L20402 16268
" />
<path d="M20402 16268
L20402 16386
" />
<path d="M20402 16386
L20823 16386
" />
<path d="M20823 16386
L20823 14134
" />
<path d="M20823 14134
L19451 14134
" />
<path d="M19451 16268
L18501 16268
" />
<path d="M18501 16268
L18501 16386
" />
<path d="M18501 16386
L18079 16386
" />
<path d="M18079 16386
L18079 14134
" />
<path d="M18079 14134
L19451 14134
" />
</g>
<g style="fill:#008484; fill-opacity:0.0; 
stroke:#008484; stroke-width:59.0551; stroke-opacity:1; 
stroke-linecap:round; stroke-linejoin:round;">
</g>
<g style="fill:#008484; fill-opacity:1.0; 
stroke:#008484; stroke-width:0; stroke-opacity:1; 
stroke-linecap:round; stroke-linejoin:round;">
<circle cx="33992.7" cy="16598.7" r="51.5362" /> 
</g>
<g style="fill:#008484; fill-opacity:1.0; 
stroke:#008484; stroke-width:39.3701; stroke-opacity:1; 
stroke-linecap:round; stroke-linejoin:round;">
</g>
<g style="fill:#008484; fill-opacity:0.0; 
stroke:#008484; stroke-width:39.3701; stroke-opacity:1; 
stroke-linecap:round; stroke-linejoin:round;">
<path d="M35028 14413
L35028 14738
" />
<path d="M35028 14413
L31933 14413
" />
<path d="M31933 14738
L31933 14413
" />
</g>
<g style="fill:#008484; fill-opacity:0.0; 
stroke:#008484; stroke-width:47.2441; stroke-opacity:1; 
stroke-linecap:round; stroke-linejoin:round;">
<path d="M26437 29697
L26889 29697
" />
<path d="M28562 29697
L28110 29697
" />
<path d="M26437 27492
L26889 27492
" />
<path d="M28562 27492
L28110 27492
" />
<path d="M26437 27492
L26437 29697
" />
<path d="M28562 27492
L28562 29697
" />
<path d="M31208 25941
L31208 25366
" />
<path d="M32452 25941
L32452 25090
" />
<path d="M32452 25941
L32086 25941
" />
<path d="M31208 25941
L31574 25941
" />
<path d="M31637 28023
L31637 28152
" />
<path d="M31236 28023
L31236 28152
" />
<path d="M32326 28152
L32326 28023
" />
<path d="M31925 28152
L31925 28023
" />
<path d="M31637 29461
L31637 29332
" />
<path d="M31236 29461
L31236 29332
" />
<path d="M31925 29332
L31925 29461
" />
<path d="M32326 29332
L32326 29461
" />
<path d="M32614 29456
L32614 29328
" />
<path d="M33015 29456
L33015 29328
" />
<path d="M28208 16118
L28336 16118
" />
<path d="M28208 16519
L28336 16519
" />
<path d="M16137 27199
L16137 27327
" />
<path d="M16539 27199
L16539 27327
" />
<path d="M29622 28240
L29622 29205
" />
<path d="M30889 28949
L30889 28240
" />
<path d="M30265 20064
L29557 20064
" />
<path d="M29557 21332
L30521 21332
" />
<path d="M14507 23228
L14507 24803
" />
<path d="M15807 23228
L14507 23228
" />
</g>
<g style="fill:#008484; fill-opacity:0.0; 
stroke:#008484; stroke-width:5.90551; stroke-opacity:1; 
stroke-linecap:round; stroke-linejoin:round;">
<text x="11558" y="31161"
textLength="696.773" font-size="413.334" lengthAdjust="spacingAndGlyphs"
text-anchor="middle" opacity="0">U4</text>
<path d="M11321 30836
L11321 31087
L11336 31116
L11351 31131
L11380 31146
L11439 31146
L11469 31131
L11484 31116
L11498 31087
L11498 30836
" />
<path d="M11779 30939
L11779 31146
" />
<path d="M11705 30821
L11631 31042
L11823 31042
" />
</g>
<g style="fill:#008484; fill-opacity:0.0; 
stroke:#008484; stroke-width:59.0551; stroke-opacity:1; 
stroke-linecap:round; stroke-linejoin:round;">
<text x="38705" y="28186.9"
textLength="795.079" font-size="524.934" lengthAdjust="spacingAndGlyphs"
text-anchor="middle" opacity="0">U6</text>
<path d="M38405 27774
L38405 28093
L38423 28130
L38442 28149
L38480 28168
L38555 28168
L38592 28149
L38611 28130
L38630 28093
L38630 27774
" />
<path d="M38986 27774
L38911 27774
L38873 27793
L38854 27811
L38817 27868
L38798 27943
L38798 28093
L38817 28130
L38836 28149
L38873 28168
L38948 28168
L38986 28149
L39004 28130
L39023 28093
L39023 27999
L39004 27961
L38986 27943
L38948 27924
L38873 27924
L38836 27943
L38817 27961
L38798 27999
" />
<text x="39825" y="30491.9"
textLength="1220.38" font-size="524.934" lengthAdjust="spacingAndGlyphs"
text-anchor="middle" opacity="0">R17</text>
<path d="M39571 30473
L39440 30285
" />
<path d="M39346 30473
L39346 30079
L39496 30079
L39534 30098
L39553 30116
L39571 30154
L39571 30210
L39553 30248
L39534 30266
L39496 30285
L39346 30285
" />
<path d="M39946 30473
L39721 30473
" />
<path d="M39834 30473
L39834 30079
L39796 30135
L39759 30173
L39721 30191
" />
<path d="M40078 30079
L40340 30079
L40171 30473
" />
<text x="42505" y="32081.9"
textLength="1220.38" font-size="524.934" lengthAdjust="spacingAndGlyphs"
text-anchor="middle" opacity="0">R16</text>
<path d="M42251 32063
L42120 31875
" />
<path d="M42026 32063
L42026 31669
L42176 31669
L42214 31688
L42233 31706
L42251 31744
L42251 31800
L42233 31838
L42214 31856
L42176 31875
L42026 31875
" />
<path d="M42626 32063
L42401 32063
" />
<path d="M42514 32063
L42514 31669
L42476 31725
L42439 31763
L42401 31781
" />
<path d="M42964 31669
L42889 31669
L42851 31688
L42833 31706
L42795 31763
L42776 31838
L42776 31988
L42795 32025
L42814 32044
L42851 32063
L42926 32063
L42964 32044
L42983 32025
L43001 31988
L43001 31894
L42983 31856
L42964 31838
L42926 31819
L42851 31819
L42814 31838
L42795 31856
L42776 31894
" />
<text x="38540" y="32806.9"
textLength="845.426" font-size="524.934" lengthAdjust="spacingAndGlyphs"
text-anchor="middle" opacity="0">D9</text>
<path d="M38249 32788
L38249 32394
L38343 32394
L38399 32413
L38436 32450
L38455 32488
L38474 32563
L38474 32619
L38455 32694
L38436 32731
L38399 32769
L38343 32788
L38249 32788
" />
<path d="M38661 32788
L38736 32788
L38774 32769
L38793 32750
L38830 32694
L38849 32619
L38849 32469
L38830 32431
L38811 32413
L38774 32394
L38699 32394
L38661 32413
L38643 32431
L38624 32469
L38624 32563
L38643 32600
L38661 32619
L38699 32638
L38774 32638
L38811 32619
L38830 32600
L38849 32563
" />
<text x="35800" y="31215.2"
textLength="1220.38" font-size="524.934" lengthAdjust="spacingAndGlyphs"
text-anchor="middle" opacity="0">C34</text>
<path d="M35546 31158
L35528 31177
L35471 31196
L35434 31196
L35378 31177
L35340 31140
L35321 31102
L35303 31027
L35303 30971
L35321 30896
L35340 30858
L35378 30821
L35434 30802
L35471 30802
L35528 30821
L35546 30840
" />
<path d="M35678 30802
L35921 30802
L35790 30952
L35846 30952
L35884 30971
L35903 30990
L35921 31027
L35921 31121
L35903 31158
L35884 31177
L35846 31196
L35734 31196
L35696 31177
L35678 31158
" />
<path d="M36259 30933
L36259 31196
" />
<path d="M36165 30784
L36071 31065
L36315 31065
" />
<text x="40755" y="28391.9"
textLength="1220.38" font-size="524.934" lengthAdjust="spacingAndGlyphs"
text-anchor="middle" opacity="0">C33</text>
<path d="M40501 28335
L40483 28354
L40426 28373
L40389 28373
L40333 28354
L40295 28316
L40276 28279
L40258 28204
L40258 28148
L40276 28073
L40295 28035
L40333 27998
L40389 27979
L40426 27979
L40483 27998
L40501 28016
" />
<path d="M40633 27979
L40876 27979
L40745 28129
L40801 28129
L40839 28148
L40858 28166
L40876 28204
L40876 28298
L40858 28335
L40839 28354
L40801 28373
L40689 28373
L40651 28354
L40633 28335
" />
<path d="M41008 27979
L41251 27979
L41120 28129
L41176 28129
L41214 28148
L41233 28166
L41251 28204
L41251 28298
L41233 28335
L41214 28354
L41176 28373
L41064 28373
L41026 28354
L41008 28335
" />
<text x="39445" y="24798.5"
textLength="1220.38" font-size="524.934" lengthAdjust="spacingAndGlyphs"
text-anchor="middle" opacity="0">C32</text>
<path d="M39191 24742
L39173 24761
L39116 24779
L39079 24779
L39023 24761
L38985 24723
L38966 24686
L38948 24611
L38948 24554
L38966 24479
L38985 24442
L39023 24404
L39079 24386
L39116 24386
L39173 24404
L39191 24423
" />
<path d="M39323 24386
L39566 24386
L39435 24536
L39491 24536
L39529 24554
L39548 24573
L39566 24611
L39566 24704
L39548 24742
L39529 24761
L39491 24779
L39379 24779
L39341 24761
L39323 24742
" />
<path d="M39716 24423
L39735 24404
L39773 24386
L39866 24386
L39904 24404
L39923 24423
L39941 24461
L39941 24498
L39923 24554
L39698 24779
L39941 24779
" />
<g transform="rotate(-90 50800 21200)">
<text x="50800" y="21396.9"
textLength="1220.38" font-size="524.934" lengthAdjust="spacingAndGlyphs"
text-anchor="middle" opacity="0">C26</text>
</g>
<path d="M50940 21453
L50959 21471
L50978 21528
L50978 21565
L50959 21621
L50921 21659
L50884 21678
L50809 21696
L50753 21696
L50678 21678
L50640 21659
L50603 21621
L50584 21565
L50584 21528
L50603 21471
L50621 21453
" />
<path d="M50621 21303
L50603 21284
L50584 21246
L50584 21153
L50603 21115
L50621 21096
L50659 21078
L50696 21078
L50753 21096
L50978 21321
L50978 21078
" />
<path d="M50584 20740
L50584 20815
L50603 20853
L50621 20871
L50678 20909
L50753 20928
L50903 20928
L50940 20909
L50959 20890
L50978 20853
L50978 20778
L50959 20740
L50940 20721
L50903 20703
L50809 20703
L50771 20721
L50753 20740
L50734 20778
L50734 20853
L50753 20890
L50771 20909
L50809 20928
" />
<text x="10985" y="41278.9"
textLength="1220.38" font-size="524.934" lengthAdjust="spacingAndGlyphs"
text-anchor="middle" opacity="0">R13</text>
<path d="M10731 41260
L10600 41072
" />
<path d="M10506 41260
L10506 40866
L10656 40866
L10694 40885
L10713 40903
L10731 40941
L10731 40997
L10713 41035
L10694 41053
L10656 41072
L10506 41072
" />
<path d="M11106 41260
L10881 41260
" />
<path d="M10994 41260
L10994 40866
L10956 40922
L10919 40960
L10881 40978
" />
<path d="M11238 40866
L11481 40866
L11350 41016
L11406 41016
L11444 41035
L11463 41053
L11481 41091
L11481 41185
L11463 41222
L11444 41241
L11406 41260
L11294 41260
L11256 41241
L11238 41222
" />
<text x="9245" y="42302.5"
textLength="770.435" font-size="524.934" lengthAdjust="spacingAndGlyphs"
text-anchor="middle" opacity="0">L3</text>
<path d="M9179 42283
L8991 42283
L8991 41890
" />
<path d="M9273 41890
L9516 41890
L9385 42040
L9441 42040
L9479 42058
L9498 42077
L9516 42115
L9516 42208
L9498 42246
L9479 42264
L9441 42283
L9329 42283
L9291 42264
L9273 42246
" />
<text x="11015" y="39011.9"
textLength="1220.38" font-size="524.934" lengthAdjust="spacingAndGlyphs"
text-anchor="middle" opacity="0">C20</text>
<path d="M10761 38955
L10743 38974
L10686 38993
L10649 38993
L10593 38974
L10555 38936
L10536 38899
L10518 38824
L10518 38768
L10536 38693
L10555 38655
L10593 38618
L10649 38599
L10686 38599
L10743 38618
L10761 38636
" />
<path d="M10911 38636
L10930 38618
L10968 38599
L11061 38599
L11099 38618
L11118 38636
L11136 38674
L11136 38711
L11118 38768
L10893 38993
L11136 38993
" />
<path d="M11380 38599
L11418 38599
L11455 38618
L11474 38636
L11493 38674
L11511 38749
L11511 38843
L11493 38918
L11474 38955
L11455 38974
L11418 38993
L11380 38993
L11343 38974
L11324 38955
L11305 38918
L11286 38843
L11286 38749
L11305 38674
L11324 38636
L11343 38618
L11380 38599
" />
<text x="11005" y="40075.2"
textLength="1220.38" font-size="524.934" lengthAdjust="spacingAndGlyphs"
text-anchor="middle" opacity="0">C19</text>
<path d="M10751 40018
L10733 40037
L10676 40056
L10639 40056
L10583 40037
L10545 40000
L10526 39962
L10508 39887
L10508 39831
L10526 39756
L10545 39718
L10583 39681
L10639 39662
L10676 39662
L10733 39681
L10751 39700
" />
<path d="M11126 40056
L10901 40056
" />
<path d="M11014 40056
L11014 39662
L10976 39718
L10939 39756
L10901 39775
" />
<path d="M11314 40056
L11389 40056
L11426 40037
L11445 40018
L11483 39962
L11501 39887
L11501 39737
L11483 39700
L11464 39681
L11426 39662
L11351 39662
L11314 39681
L11295 39700
L11276 39737
L11276 39831
L11295 39868
L11314 39887
L11351 39906
L11426 39906
L11464 39887
L11483 39868
L11501 39831
" />
<text x="18575" y="41831.9"
textLength="1220.38" font-size="524.934" lengthAdjust="spacingAndGlyphs"
text-anchor="middle" opacity="0">C18</text>
<path d="M18321 41775
L18303 41794
L18246 41813
L18209 41813
L18153 41794
L18115 41756
L18096 41719
L18078 41644
L18078 41588
L18096 41513
L18115 41475
L18153 41438
L18209 41419
L18246 41419
L18303 41438
L18321 41456
" />
<path d="M18696 41813
L18471 41813
" />
<path d="M18584 41813
L18584 41419
L18546 41475
L18509 41513
L18471 41531
" />
<path d="M18921 41588
L18884 41569
L18865 41550
L18846 41513
L18846 41494
L18865 41456
L18884 41438
L18921 41419
L18996 41419
L19034 41438
L19053 41456
L19071 41494
L19071 41513
L19053 41550
L19034 41569
L18996 41588
L18921 41588
L18884 41606
L18865 41625
L18846 41663
L18846 41738
L18865 41775
L18884 41794
L18921 41813
L18996 41813
L19034 41794
L19053 41775
L19071 41738
L19071 41663
L19053 41625
L19034 41606
L18996 41588
" />
<text x="18575" y="39968.9"
textLength="1220.38" font-size="524.934" lengthAdjust="spacingAndGlyphs"
text-anchor="middle" opacity="0">C17</text>
<path d="M18321 39912
L18303 39931
L18246 39950
L18209 39950
L18153 39931
L18115 39893
L18096 39856
L18078 39781
L18078 39725
L18096 39650
L18115 39612
L18153 39575
L18209 39556
L18246 39556
L18303 39575
L18321 39593
" />
<path d="M18696 39950
L18471 39950
" />
<path d="M18584 39950
L18584 39556
L18546 39612
L18509 39650
L18471 39668
" />
<path d="M18828 39556
L19090 39556
L18921 39950
" />
<g >
</g>
</g>
<g style="fill:#000000; fill-opacity:0.0; 
stroke:#000000; stroke-width:59.0551; stroke-opacity:1; 
stroke-linecap:round; stroke-linejoin:round;">
</g>
<g style="fill:#C2C200; fill-opacity:0.0; 
stroke:#C2C200; stroke-width:59.0551; stroke-opacity:1; 
stroke-linecap:round; stroke-linejoin:round;">
</g>
<g style="fill:#C2C200; fill-opacity:0.0; 
stroke:#C2C200; stroke-width:19.685; stroke-opacity:1; 
stroke-linecap:round; stroke-linejoin:round;">
<path d="M8771.65 13976.4 A2165.35 2165.35 0.0 0 0 6606.3 16141.7" />
<path d="M6606.3 49889.8 A2165.35 2165.35 0.0 0 0 8771.65 52055.1" />
<path d="M53988.2 52055.1 A2165.35 2165.35 0.0 0 0 56153.5 49889.8" />
<path d="M56153.5 16141.7 A2165.35 2165.35 0.0 0 0 53988.2 13976.4" />
<path d="M6606 49889
L6606 16141
" />
<path d="M53988 52055
L8771 52055
" />
<path d="M56153 16141
L56153 49889
" />
<path d="M8771 13976
L53988 13976
" />
<g >
</g>
<g >
</g>
<g >
</g>
<g >
</g>
<g >
</g>
<g >
</g>
<g >
</g>
<g >
</g>
<g >
</g>
<g >
</g>
<g >
</g>
<g >
</g>
<g >
</g>
<g >
</g>
<g >
</g>
<g >
</g>
<g >
</g>
<g >
</g>
<g >
</g>
<g >
</g>
<g >
</g>
<g >
</g>
<g >
</g>
<g >
</g>
<g >
</g>
<g >
</g>
<g >
</g>
<g >
</g>
<g >
</g>
<g >
</g>
<g >
</g>
<g >
</g>
<g >
</g>
<g >
</g>
<g >
</g>
<g >
</g>
<g >
</g>
<g >
</g>
<g >
</g>
<g >
</g>
<g >
</g>
<g >
</g>
<g >
</g>
<g >
</g>
<g >
</g>
<g >
</g>
<g >
</g>
<g >
</g>
<g >
</g>
<g >
</g>
<g >
</g>
<g >
</g>
<g >
</g>
<g >
</g>
<g >
</g>
<g >
</g>
<g >
</g>
<g >
</g>
<g >
</g>
<g >
</g>
<g >
</g>
<g >
</g>
<g >
</g>
<g >
</g>
<g >
</g>
<g >
</g>
<g >
</g>
<g >
</g>
<g >
</g>
<g >
</g>
<g >
</g>
<g >
</g>
<g >
</g>
<g >
</g>
<g >
</g>
<g >
</g>
<g >
</g>
<g >
</g>
<g >
</g>
<g >
</g>
<g >
</g>
<g >
</g>
<g >
</g>
<g >
</g>
<g >
</g>
<g >
</g>
<g >
</g>
<g >
</g>
<g >
</g>
<g >
</g>
<g >
</g>
<g >
</g>
<g >
</g>
</g> 
</svg>
